<svg id="Layer_1" data-name="Layer 1" xmlns="http://www.w3.org/2000/svg" xmlns:xlink="http://www.w3.org/1999/xlink" viewBox="0 0 300 300">
  <defs>
    <style>
      .cls-1, .cls-4, .cls-5 {
        fill: none;
      }

      .cls-2 {
        clip-path: url(#clip-path);
      }

      .cls-3 {
        clip-path: url(#clip-path-2);
      }

      .cls-4 {
        stroke: #fff;
        stroke-width: 4px;
      }

      .cls-4, .cls-5 {
        stroke-miterlimit: 10;
      }

      .cls-5 {
        stroke: #2a0064;
      }

      .cls-6 {
        fill: #fff;
      }
    </style>
    <clipPath id="clip-path">
      <path class="cls-1" d="M115.964,45.214a110.264,110.264,0,1,0,138.49,71.672A110.265,110.265,0,0,0,115.964,45.214ZM184.1,139.173a36.6,36.6,0,1,1-45.972-23.789A36.583,36.583,0,0,1,184.1,139.173Z"/>
    </clipPath>
    <clipPath id="clip-path-2">
      <rect class="cls-1" x="37.765" y="38.691" width="223.214" height="223.207"/>
    </clipPath>
  </defs>
  <rect width="300" height="300" rx="20.109"/>
  <g>
    <g>
      <g class="cls-2">
        <g class="cls-3">
          <g class="cls-3">
            <image width="466" height="466" transform="translate(37.72 38.36) scale(0.48)" xlink:href="favicon1.png"/>
          </g>
        </g>
      </g>
      <path class="cls-4" d="M115.964,45.214a110.264,110.264,0,1,0,138.49,71.672A110.265,110.265,0,0,0,115.964,45.214ZM184.1,139.173a36.6,36.6,0,1,1-45.972-23.789A36.583,36.583,0,0,1,184.1,139.173Z"/>
    </g>
    <g>
      <path class="cls-5" d="M123.119,67.024a87.36,87.36,0,1,0,109.722,56.787A87.317,87.317,0,0,0,123.119,67.024ZM160.3,185.148A36.6,36.6,0,1,1,184.1,139.173,36.583,36.583,0,0,1,160.3,185.148Z"/>
      <path class="cls-5" d="M117.9,51.949a103.389,103.389,0,1,0,129.854,67.2A103.33,103.33,0,0,0,117.9,51.949ZM184.1,139.173a36.6,36.6,0,1,1-45.972-23.789A36.583,36.583,0,0,1,184.1,139.173Z"/>
      <path class="cls-5" d="M126.856,79.151a74.722,74.722,0,1,0,93.851,48.571A74.681,74.681,0,0,0,126.856,79.151ZM184.1,139.173a36.6,36.6,0,1,1-45.972-23.789A36.583,36.583,0,0,1,184.1,139.173Z"/>
      <path class="cls-5" d="M134.311,102.006A50.863,50.863,0,1,0,198.2,135.065,50.832,50.832,0,0,0,134.311,102.006ZM184.1,139.173a36.6,36.6,0,1,1-45.972-23.789A36.583,36.583,0,0,1,184.1,139.173Z"/>
      <path class="cls-6" d="M137.324,113.045A39.15,39.15,0,1,0,186.5,138.489,39.127,39.127,0,0,0,137.324,113.045Zm15.719,44.507a7.738,7.738,0,1,1,3.2-10.463A7.737,7.737,0,0,1,153.043,157.552Z"/>
    </g>
  </g>
</svg>
