<?xml version="1.0" standalone="no"?>
<!DOCTYPE svg PUBLIC "-//W3C//DTD SVG 20010904//EN"
 "http://www.w3.org/TR/2001/REC-SVG-20010904/DTD/svg10.dtd">
<svg version="1.0" xmlns="http://www.w3.org/2000/svg"
 width="1251.000000pt" height="1251.000000pt" viewBox="0 0 1251.000000 1251.000000"
 preserveAspectRatio="xMidYMid meet">
<metadata>
Created by potrace 1.14, written by Peter Selinger 2001-2017
</metadata>
<g transform="translate(0.000000,1251.000000) scale(0.100000,-0.100000)"
fill="#000000" stroke="none">
<path d="M6531 10704 c-6 -22 -11 -49 -11 -60 0 -12 -3 -34 -6 -50 l-6 -29
-306 0 c-229 -1 -344 -5 -452 -19 -917 -111 -1726 -473 -2420 -1081 -58 -51
-113 -102 -124 -113 l-19 -21 -29 22 c-16 12 -46 37 -67 55 l-39 32 -93 -98
c-659 -692 -1081 -1582 -1203 -2537 -129 -1011 107 -2081 651 -2949 607 -970
1558 -1671 2663 -1965 215 -57 595 -127 605 -111 4 6 8 34 19 118 2 12 6 25 9
28 3 4 68 1 144 -6 320 -29 756 -11 1089 45 733 124 1470 454 2017 902 89 73
92 73 162 -5 l41 -45 95 84 c748 666 1261 1600 1428 2600 48 288 56 388 56
744 0 355 -8 457 -55 740 -241 1443 -1160 2677 -2465 3309 -502 244 -1066 401
-1587 442 l-86 7 -11 -39z m-43 -213 c2 -13 -1 -42 -7 -65 -7 -23 -14 -50 -16
-61 -28 -140 -60 -254 -77 -281 -4 -6 -12 -31 -17 -55 -6 -24 -17 -60 -25 -80
l-15 -36 -213 -6 c-218 -6 -363 -22 -548 -58 -513 -101 -957 -282 -1381 -565
-125 -84 -362 -268 -408 -318 -24 -25 -24 -25 -55 -8 -17 9 -49 32 -70 50 -22
17 -45 32 -51 32 -6 0 -40 22 -76 50 -35 27 -67 50 -71 50 -11 0 -141 84 -170
109 -13 11 -31 26 -42 34 -17 12 -10 21 90 115 295 275 651 516 1039 703 426
205 902 342 1370 393 202 23 206 23 485 22 l255 -1 3 -24z m-184 -658 c-4 -16
-13 -35 -20 -44 -8 -8 -14 -22 -14 -30 0 -9 -8 -33 -19 -55 -10 -21 -26 -60
-35 -86 -17 -51 -87 -192 -108 -219 -9 -11 -38 -18 -93 -23 -434 -37 -831
-149 -1207 -340 -156 -79 -318 -177 -437 -266 l-76 -56 -70 23 c-38 12 -71 23
-72 24 -2 1 -6 2 -10 4 -5 1 -26 10 -48 20 -95 42 -183 78 -220 89 -94 29 -95
22 13 115 488 423 1107 714 1742 821 107 17 252 36 345 43 22 2 106 4 188 5
l147 2 -6 -27z m-248 -525 c-8 -13 -22 -45 -31 -72 -9 -27 -21 -54 -26 -60 -5
-6 -27 -36 -49 -66 -22 -30 -43 -59 -47 -65 -4 -5 -19 -26 -32 -45 -12 -19
-42 -50 -65 -67 -22 -18 -72 -62 -110 -98 -39 -36 -75 -65 -82 -65 -7 0 -14
-4 -16 -9 -1 -5 -53 -34 -114 -64 -61 -31 -129 -68 -150 -82 -21 -14 -44 -23
-51 -21 -7 3 -13 2 -13 -2 0 -4 -12 -7 -27 -8 -58 -2 -329 -15 -359 -18 -17
-1 -53 4 -80 11 -27 8 -78 18 -114 23 -126 18 -165 26 -199 44 -19 10 -57 26
-84 35 l-50 17 121 84 c462 321 988 504 1575 549 16 1 16 -1 3 -21z m329
-1438 c280 -31 540 -127 770 -283 179 -122 392 -358 503 -559 135 -243 214
-590 198 -867 -45 -791 -637 -1433 -1416 -1537 -897 -119 -1715 511 -1836
1415 -80 605 201 1223 711 1562 316 211 709 309 1070 269z m1194 -4109 c6 -9
47 -19 101 -25 14 -2 39 -9 55 -18 17 -8 63 -25 103 -38 39 -14 72 -27 72 -30
0 -3 -15 -13 -33 -24 -205 -119 -274 -155 -389 -206 -368 -161 -707 -240
-1141 -265 l-98 -5 29 42 c17 24 37 61 46 82 15 37 207 236 228 236 5 0 26 16
46 36 20 19 57 47 82 62 25 14 47 29 50 32 3 3 30 16 60 27 86 33 234 93 248
101 21 11 534 5 541 -7z m416 -141 c4 -6 36 -25 73 -43 37 -18 112 -55 167
-83 55 -28 111 -56 125 -63 51 -25 80 -42 80 -49 0 -4 -49 -41 -108 -84 -455
-324 -1014 -549 -1567 -628 -250 -36 -573 -50 -752 -31 l-62 6 28 62 c15 34
34 70 43 80 16 19 112 186 125 218 4 11 19 36 33 56 l24 37 126 6 c420 22 751
94 1115 243 132 54 363 172 460 236 77 50 81 52 90 37z m561 -320 c18 -1 117
-69 164 -114 27 -26 51 -46 55 -46 12 0 91 -58 132 -98 23 -22 51 -46 63 -52
12 -6 20 -15 18 -20 -13 -37 -440 -339 -642 -455 -414 -237 -906 -413 -1378
-494 -403 -69 -697 -82 -1111 -49 l-139 11 5 36 c7 44 13 73 27 120 11 35 15
45 40 106 7 17 26 68 42 114 16 46 43 113 59 148 16 35 29 67 29 71 0 4 129 7
288 7 451 0 769 49 1175 181 371 122 774 330 1066 551 l44 33 27 -25 c14 -14
30 -25 36 -25z"/>
</g>
</svg>
