<svg xmlns="http://www.w3.org/2000/svg" viewBox="0 0 436.788 133">
  <defs>
    <style>
      .cls-1 {
        fill: rgba(255, 255, 255, 0.3);
        stroke: #fff;
        stroke-miterlimit: 10;
        stroke-width: 3px;
      }

      .cls-2 {
        fill: #fff;
      }

      .cls-3 {
        fill: #2a0064;
      }

      .cls-4 {
        fill: #e3e3e3;
      }

      text {
        
      }

    </style>
  </defs>
  <g id="Layer_1" data-name="Layer 1">
    <g>
      <g>
        <rect class="cls-1" x="1.5" y="1.5" width="433.788" height="130" rx="65"/>
        <circle class="cls-2" cx="370.288" cy="66.5" r="65"/>
        <a href="contact.html">
          <text x="90" y="80" font-family="eurostile, sans-serif" font-size="3em" fill="9e8fff59">CONTACT</text>
        </a>
      </g>
      <g>
        <path class="cls-3" d="M403.821,40.524H341.57a8.471,8.471,0,0,0-8.467,8.467v37a8.473,8.473,0,0,0,8.467,8.476h62.251a8.473,8.473,0,0,0,8.467-8.476v-37A8.471,8.471,0,0,0,403.821,40.524Zm-62.251,2.3h62.251a6.171,6.171,0,0,1,2.741.644L372.5,65.933l-33.989-22.3A6.161,6.161,0,0,1,341.57,42.822ZM335.4,48.991a6.119,6.119,0,0,1,1.313-3.794l29.151,19.126L335.4,83.945Zm68.42,43.177H341.57a6.184,6.184,0,0,1-6.135-5.516L367.962,65.7l4.542,3.133,4.595-3.185,32.857,21.006A6.184,6.184,0,0,1,403.821,92.168Zm6.169-8.214L379.2,64.262l29.282-19.317a6.186,6.186,0,0,1,1.513,4.046Z"/>
        <path class="cls-4" d="M365.865,64.323,335.4,83.945V48.991a6.119,6.119,0,0,1,1.313-3.794Z"/>
        <path class="cls-4" d="M406.562,43.466,372.5,65.933l-33.989-22.3a6.161,6.161,0,0,1,3.055-.809h62.251A6.171,6.171,0,0,1,406.562,43.466Z"/>
        <path class="cls-4" d="M409.99,48.991V83.954L379.2,64.262l29.282-19.317A6.186,6.186,0,0,1,409.99,48.991Z"/>
        <path class="cls-4" d="M409.956,86.652a6.184,6.184,0,0,1-6.135,5.516H341.57a6.184,6.184,0,0,1-6.135-5.516L367.962,65.7l4.542,3.133,4.595-3.185Z"/>
      </g>
    </g>
  </g>
</svg>
