<svg id="Layer_1" data-name="Layer 1" xmlns="http://www.w3.org/2000/svg" xmlns:xlink="http://www.w3.org/1999/xlink" width="1920" height="1080" viewBox="0 0 1920 1080"><defs><style>.cls-1{fill:#fff;}.cls-2{fill:#030000;}</style><symbol id="circle" data-name="circle" viewBox="0 0 1 1"><circle class="cls-1" cx="0.5" cy="0.5" r="0.5"/></symbol><symbol id="star" data-name="star" viewBox="0 0 1.72 1.72"><circle class="cls-1" cx="0.86" cy="0.86" r="0.87"/></symbol></defs><rect class="cls-2" x="0.5" y="0.5" width="1919" height="1079"/><path d="M1919,1V1079H1V1H1919m1-1H0V1080H1920V0Z" transform="translate(0)"/><use width="1" height="1" transform="translate(207.5 151.5)" xlink:href="#circle"/><use width="1.72" height="1.72" transform="translate(194.91 131.07) scale(1.03 1.03)" xlink:href="#star"/><use width="1.72" height="1.72" transform="translate(301.51 366.29) scale(1.03 1.03)" xlink:href="#star"/><use width="1.72" height="1.72" transform="translate(310.39 351.07) scale(1.03 1.03)" xlink:href="#star"/><use width="1.72" height="1.72" transform="translate(858.26 280.83) scale(1.03 1.03)" xlink:href="#star"/><use width="1.72" height="1.72" transform="translate(979.51 380.09) scale(1.03 1.03)" xlink:href="#star"/><use width="1.72" height="1.72" transform="translate(977.73 384) scale(1.03 1.03)" xlink:href="#star"/><use width="1.72" height="1.72" transform="translate(627.25 433.98) scale(1.03 1.03)" xlink:href="#star"/><use width="1.72" height="1.72" transform="translate(290.5 872.57) scale(1.03 1.03)" xlink:href="#star"/><use width="1.72" height="1.72" transform="translate(703.78 1034.89) scale(1.03 1.03)" xlink:href="#star"/><use width="1.72" height="1.72" transform="translate(965.85 851.2) scale(1.03 1.03)" xlink:href="#star"/><use width="1.72" height="1.72" transform="translate(969.62 782.79) scale(1.03 1.03)" xlink:href="#star"/><use width="1.72" height="1.72" transform="translate(332.41 111.99) scale(1.03 1.03)" xlink:href="#star"/><use width="1.72" height="1.72" transform="translate(340.08 112.64) scale(1.03 1.03)" xlink:href="#star"/><use width="1.72" height="1.72" transform="translate(477.98 124.59) scale(1.03 1.03)" xlink:href="#star"/><use width="1.72" height="1.72" transform="translate(722.33 146.55) scale(1.03 1.03)" xlink:href="#star"/><use width="1.72" height="1.72" transform="translate(1193.61 149.41) scale(1.03 1.03)" xlink:href="#star"/><use width="1.72" height="1.72" transform="translate(1549.61 199.12) scale(1.03 1.03)" xlink:href="#star"/><use width="1.72" height="1.72" transform="translate(1600.22 209.33) scale(1.03 1.03)" xlink:href="#star"/><use width="1.72" height="1.72" transform="translate(1637.67 149.69) scale(1.03 1.03)" xlink:href="#star"/><use width="1.72" height="1.72" transform="translate(1706.74 141.85) scale(1.03 1.03)" xlink:href="#star"/><use width="1.72" height="1.72" transform="translate(1780.52 404.9) scale(1.03 1.03)" xlink:href="#star"/><use width="1.72" height="1.72" transform="translate(1793.9 448.82) scale(1.03 1.03)" xlink:href="#star"/><use width="1.72" height="1.72" transform="translate(1774.73 437.14) scale(1.03 1.03)" xlink:href="#star"/><use width="1.72" height="1.72" transform="translate(1794.38 496.53) scale(1.03 1.03)" xlink:href="#star"/><use width="1.72" height="1.72" transform="translate(1858.23 660.66) scale(1.03 1.03)" xlink:href="#star"/><use width="1.72" height="1.72" transform="translate(1864.27 715.28) scale(1.03 1.03)" xlink:href="#star"/><use width="1.72" height="1.72" transform="translate(1858.52 818.27) scale(1.03 1.03)" xlink:href="#star"/><use width="1.72" height="1.72" transform="translate(1851.12 893.42) scale(1.03 1.03)" xlink:href="#star"/><use width="1.72" height="1.72" transform="translate(1848.48 950.04) scale(1.03 1.03)" xlink:href="#star"/><use width="1.72" height="1.72" transform="translate(1855.66 985.98) scale(1.03 1.03)" xlink:href="#star"/><use width="1.72" height="1.72" transform="translate(1864.51 999.01) scale(1.03 1.03)" xlink:href="#star"/><use width="1.72" height="1.72" transform="translate(1851.69 998.08) scale(1.03 1.03)" xlink:href="#star"/><use width="1.72" height="1.72" transform="translate(1639.6 955.02) scale(1.03 1.03)" xlink:href="#star"/><use width="1.72" height="1.72" transform="translate(1537.11 986) scale(1.03 1.03)" xlink:href="#star"/><use width="1.72" height="1.72" transform="translate(1484.95 1012.31) scale(1.03 1.03)" xlink:href="#star"/><use width="1.72" height="1.72" transform="translate(1496.28 1019.02) scale(1.03 1.03)" xlink:href="#star"/><use width="1.72" height="1.72" transform="translate(1596.67 1030.03) scale(1.03 1.03)" xlink:href="#star"/><use width="1.72" height="1.72" transform="translate(1596.37 1024.99) scale(1.03 1.03)" xlink:href="#star"/><use width="1.72" height="1.72" transform="translate(1600.77 1027.21) scale(1.03 1.03)" xlink:href="#star"/><use width="1.72" height="1.72" transform="translate(1526.64 1013) scale(1.03 1.03)" xlink:href="#star"/><use width="1.72" height="1.72" transform="translate(1476.91 992.75) scale(1.03 1.03)" xlink:href="#star"/><use width="1.72" height="1.72" transform="translate(1472.68 987.87) scale(1.03 1.03)" xlink:href="#star"/><use width="1.72" height="1.72" transform="translate(1296.13 952.22) scale(1.03 1.03)" xlink:href="#star"/><use width="1.72" height="1.72" transform="translate(1117.22 935.11) scale(1.03 1.03)" xlink:href="#star"/><use width="1.72" height="1.72" transform="translate(820.96 900.41) scale(1.03 1.03)" xlink:href="#star"/><use width="1.72" height="1.72" transform="translate(874.44 812.79) scale(1.03 1.03)" xlink:href="#star"/><use width="1.72" height="1.72" transform="translate(1300.06 755.21) scale(1.03 1.03)" xlink:href="#star"/><use width="1.72" height="1.72" transform="translate(1382.86 651.22) scale(1.03 1.03)" xlink:href="#star"/><use width="1.72" height="1.72" transform="translate(1164.68 607.56) scale(1.03 1.03)" xlink:href="#star"/><use width="1.72" height="1.72" transform="translate(1456.57 790.72) scale(1.03 1.03)" xlink:href="#star"/><use width="1.72" height="1.72" transform="translate(1353.22 470.86) scale(1.03 1.03)" xlink:href="#star"/><use width="1.72" height="1.72" transform="translate(917.92 596.61) scale(1.03 1.03)" xlink:href="#star"/><use width="1.72" height="1.72" transform="translate(1094.83 663.95) scale(1.03 1.03)" xlink:href="#star"/><use width="1.72" height="1.72" transform="translate(481.86 482.59) scale(1.03 1.03)" xlink:href="#star"/><use width="1.72" height="1.72" transform="translate(224.31 677.47) scale(1.03 1.03)" xlink:href="#star"/><use width="1.72" height="1.72" transform="translate(584.52 634.26) scale(1.03 1.03)" xlink:href="#star"/><use width="1.72" height="1.72" transform="translate(510.87 561.98) scale(1.03 1.03)" xlink:href="#star"/><use width="1.72" height="1.72" transform="translate(478.08 747.53) scale(1.03 1.03)" xlink:href="#star"/><use width="1.72" height="1.72" transform="translate(701.88 659.8) scale(1.03 1.03)" xlink:href="#star"/><use width="1.72" height="1.72" transform="translate(618.61 744.13) scale(1.03 1.03)" xlink:href="#star"/><use width="1.72" height="1.72" transform="translate(649.32 892.81) scale(1.03 1.03)" xlink:href="#star"/><use width="1.72" height="1.72" transform="translate(470.89 924.22) scale(1.03 1.03)" xlink:href="#star"/><use width="1.72" height="1.72" transform="translate(306.2 893.12) scale(1.03 1.03)" xlink:href="#star"/><use width="1.72" height="1.72" transform="translate(230.08 822.18) scale(1.03 1.03)" xlink:href="#star"/><use width="1.72" height="1.72" transform="translate(163.93 697.44) scale(1.03 1.03)" xlink:href="#star"/><use width="1.72" height="1.72" transform="translate(136.96 595.13) scale(1.03 1.03)" xlink:href="#star"/><use width="1.72" height="1.72" transform="translate(140.4 592.59) scale(1.03 1.03)" xlink:href="#star"/><use width="1.72" height="1.72" transform="translate(161.28 426.9) scale(1.03 1.03)" xlink:href="#star"/><use width="1.72" height="1.72" transform="translate(133.77 288.94) scale(1.03 1.03)" xlink:href="#star"/><use width="1.72" height="1.72" transform="translate(118.08 246.44) scale(1.03 1.03)" xlink:href="#star"/><use width="1.72" height="1.72" transform="translate(107.58 218.28) scale(1.03 1.03)" xlink:href="#star"/><use width="1.72" height="1.72" transform="translate(100.56 203.58) scale(1.03 1.03)" xlink:href="#star"/><use width="1.72" height="1.72" transform="translate(89.18 181.03) scale(1.03 1.03)" xlink:href="#star"/><use width="1.72" height="1.72" transform="translate(76.28 147.73) scale(1.03 1.03)" xlink:href="#star"/><use width="1.72" height="1.72" transform="translate(68.06 119.86) scale(1.03 1.03)" xlink:href="#star"/><use width="1.72" height="1.72" transform="translate(62.78 89.79) scale(1.03 1.03)" xlink:href="#star"/><use width="1.72" height="1.72" transform="translate(56.75 65.21) scale(1.03 1.03)" xlink:href="#star"/><use width="1.72" height="1.72" transform="translate(52.61 45.62) scale(1.03 1.03)" xlink:href="#star"/><use width="1.72" height="1.72" transform="translate(49.84 37.91) scale(1.03 1.03)" xlink:href="#star"/><use width="1.72" height="1.72" transform="translate(193.54 51.19) scale(1.03 1.03)" xlink:href="#star"/><use width="1.72" height="1.72" transform="translate(410.24 73.06) scale(1.03 1.03)" xlink:href="#star"/><use width="1.72" height="1.72" transform="translate(625.87 107.63) scale(1.03 1.03)" xlink:href="#star"/><use width="1.72" height="1.72" transform="translate(133.51 238.94) scale(1.03 1.03)" xlink:href="#star"/><use width="1.72" height="1.72" transform="translate(123.76 274.05) scale(1.03 1.03)" xlink:href="#star"/><use width="1.72" height="1.72" transform="translate(94.73 421.14) scale(1.03 1.03)" xlink:href="#star"/><use width="1.72" height="1.72" transform="translate(87.15 502) scale(1.03 1.03)" xlink:href="#star"/><use width="1.72" height="1.72" transform="translate(75.43 618.66) scale(1.03 1.03)" xlink:href="#star"/><use width="1.72" height="1.72" transform="translate(65.25 722.54) scale(1.03 1.03)" xlink:href="#star"/><use width="1.72" height="1.72" transform="translate(69.78 722.97) scale(1.03 1.03)" xlink:href="#star"/><use width="1.72" height="1.72" transform="translate(66.8 731.11) scale(1.03 1.03)" xlink:href="#star"/><use width="1.72" height="1.72" transform="translate(45.03 827.63) scale(1.03 1.03)" xlink:href="#star"/><use width="1.72" height="1.72" transform="translate(34.66 888.91) scale(1.03 1.03)" xlink:href="#star"/><use width="1.72" height="1.72" transform="translate(32.02 921.41) scale(1.03 1.03)" xlink:href="#star"/><use width="1.72" height="1.72" transform="translate(32.06 954.03) scale(1.03 1.03)" xlink:href="#star"/><use width="1.72" height="1.72" transform="translate(43.4 985) scale(1.03 1.03)" xlink:href="#star"/><use width="1.72" height="1.72" transform="translate(84.16 1016.15) scale(1.03 1.03)" xlink:href="#star"/><use width="1.72" height="1.72" transform="translate(124.15 1025.53) scale(1.03 1.03)" xlink:href="#star"/><use width="1.72" height="1.72" transform="translate(148.22 957.29) scale(1.03 1.03)" xlink:href="#star"/><use width="1.72" height="1.72" transform="translate(137.76 849.75) scale(1.03 1.03)" xlink:href="#star"/><use width="1.72" height="1.72" transform="translate(134.21 859) scale(1.03 1.03)" xlink:href="#star"/><use width="1.72" height="1.72" transform="translate(240.81 985.17) scale(1.03 1.03)" xlink:href="#star"/><use width="1.72" height="1.72" transform="translate(277.12 1007.71) scale(1.03 1.03)" xlink:href="#star"/><use width="1.72" height="1.72" transform="translate(287.88 978.39) scale(1.03 1.03)" xlink:href="#star"/><use width="1.72" height="1.72" transform="translate(344.03 986.33) scale(1.03 1.03)" xlink:href="#star"/><use width="1.72" height="1.72" transform="translate(425.8 1004.38) scale(1.03 1.03)" xlink:href="#star"/><use width="1.72" height="1.72" transform="translate(474.21 1008.6) scale(1.03 1.03)" xlink:href="#star"/><use width="1.72" height="1.72" transform="translate(544.48 1007.02) scale(1.03 1.03)" xlink:href="#star"/><use width="1.72" height="1.72" transform="translate(634.21 1001.46) scale(1.03 1.03)" xlink:href="#star"/><use width="1.72" height="1.72" transform="translate(712.1 1057.74) scale(1.03 1.03)" xlink:href="#star"/><use width="1.72" height="1.72" transform="translate(729.12 1059.18) scale(1.03 1.03)" xlink:href="#star"/><use width="1.72" height="1.72" transform="translate(961.71 1041.92) scale(1.03 1.03)" xlink:href="#star"/><use width="1.72" height="1.72" transform="translate(1222.37 1032.3) scale(1.03 1.03)" xlink:href="#star"/><use width="1.72" height="1.72" transform="translate(1419.74 1050.12) scale(1.03 1.03)" xlink:href="#star"/><use width="1.72" height="1.72" transform="translate(1489.4 1056.75) scale(1.03 1.03)" xlink:href="#star"/><use width="1.72" height="1.72" transform="translate(829.37 366.81) scale(1.03 1.03)" xlink:href="#star"/><use width="1.72" height="1.72" transform="translate(1047.55 309.14) scale(1.03 1.03)" xlink:href="#star"/><use width="1.72" height="1.72" transform="translate(1259.02 279.98) scale(1.03 1.03)" xlink:href="#star"/><use width="1.72" height="1.72" transform="translate(844.86 246.95) scale(1.03 1.03)" xlink:href="#star"/><use width="1.72" height="1.72" transform="translate(736.96 235.9) scale(1.03 1.03)" xlink:href="#star"/><use width="1.72" height="1.72" transform="translate(734.42 239.34) scale(1.03 1.03)" xlink:href="#star"/><use width="1.72" height="1.72" transform="translate(708.9 202.26) scale(1.03 1.03)" xlink:href="#star"/><use width="1.72" height="1.72" transform="translate(500.69 172.89) scale(1.03 1.03)" xlink:href="#star"/><use width="1.72" height="1.72" transform="translate(400.73 327.68) scale(1.03 1.03)" xlink:href="#star"/><use width="1.72" height="1.72" transform="translate(539.5 348.15) scale(1.03 1.03)" xlink:href="#star"/><use width="1.72" height="1.72" transform="translate(803.72 197.06) scale(1.03 1.03)" xlink:href="#star"/><use width="1.72" height="1.72" transform="translate(915.88 113.69) scale(1.03 1.03)" xlink:href="#star"/><use width="1.72" height="1.72" transform="translate(935.86 110) scale(1.03 1.03)" xlink:href="#star"/><use width="1.72" height="1.72" transform="translate(1055.58 88.03) scale(1.03 1.03)" xlink:href="#star"/><use width="1.72" height="1.72" transform="translate(1179.95 61.15) scale(1.03 1.03)" xlink:href="#star"/><use width="1.72" height="1.72" transform="translate(1306.7 61.48) scale(1.03 1.03)" xlink:href="#star"/><use width="1.72" height="1.72" transform="translate(1341.77 62.67) scale(1.03 1.03)" xlink:href="#star"/><use width="1.72" height="1.72" transform="translate(1342.27 66.95) scale(1.03 1.03)" xlink:href="#star"/><use width="1.72" height="1.72" transform="translate(1372.31 64.92) scale(1.03 1.03)" xlink:href="#star"/><use width="1.72" height="1.72" transform="translate(1516.07 53.49) scale(1.03 1.03)" xlink:href="#star"/><use width="1.72" height="1.72" transform="translate(1630 47.84) scale(1.03 1.03)" xlink:href="#star"/><use width="1.72" height="1.72" transform="translate(1698.4 40.75) scale(1.03 1.03)" xlink:href="#star"/><use width="1" height="1" transform="translate(1623.23 264.07) scale(1.03 1.03)" xlink:href="#circle"/><use width="1" height="1" transform="translate(1446.12 246.82) scale(1.03 1.03)" xlink:href="#circle"/><use width="1" height="1" transform="translate(1103.7 250.83) scale(1.03 1.03)" xlink:href="#circle"/><use width="1" height="1" transform="translate(959.92 370.53) scale(1.03 1.03)" xlink:href="#circle"/><use width="1" height="1" transform="translate(914.45 568.13) scale(1.03 1.03)" xlink:href="#circle"/><use width="1" height="1" transform="translate(1301.38 580.39) scale(1.03 1.03)" xlink:href="#circle"/><use width="1" height="1" transform="translate(1346.59 447.85) scale(1.03 1.03)" xlink:href="#circle"/><use width="1" height="1" transform="translate(1228.13 544.85) scale(1.03 1.03)" xlink:href="#circle"/><use width="1" height="1" transform="translate(1567.74 557.46) scale(1.03 1.03)" xlink:href="#circle"/><use width="1" height="1" transform="translate(1493.07 393.83) scale(1.03 1.03)" xlink:href="#circle"/><use width="1" height="1" transform="translate(1484.12 536.02) scale(1.03 1.03)" xlink:href="#circle"/><use width="1" height="1" transform="translate(1723.93 666.11) scale(1.03 1.03)" xlink:href="#circle"/><use width="1" height="1" transform="translate(1691.24 535.3) scale(1.03 1.03)" xlink:href="#circle"/><use width="1" height="1" transform="translate(1644.03 548.89) scale(1.03 1.03)" xlink:href="#circle"/><use width="1" height="1" transform="translate(1713.99 534.3) scale(1.03 1.03)" xlink:href="#circle"/><use width="1" height="1" transform="translate(1757.07 346.14) scale(1.03 1.03)" xlink:href="#circle"/><use width="1" height="1" transform="translate(1763.31 289.6) scale(1.03 1.03)" xlink:href="#circle"/><use width="1" height="1" transform="translate(1760.37 287.19) scale(1.03 1.03)" xlink:href="#circle"/><use width="1" height="1" transform="translate(1763.87 285.84) scale(1.03 1.03)" xlink:href="#circle"/><use width="1" height="1" transform="translate(1797.28 394.4) scale(1.03 1.03)" xlink:href="#circle"/><use width="1" height="1" transform="translate(1859.78 413) scale(1.03 1.03)" xlink:href="#circle"/><use width="1" height="1" transform="translate(1895.4 286.71) scale(1.03 1.03)" xlink:href="#circle"/><use width="1" height="1" transform="translate(1882.89 236.93) scale(1.03 1.03)" xlink:href="#circle"/><use width="1" height="1" transform="translate(1893.15 256.88) scale(1.03 1.03)" xlink:href="#circle"/><use width="1" height="1" transform="translate(1913.73 268.88) scale(1.03 1.03)" xlink:href="#circle"/><use width="1" height="1" transform="translate(1903.22 196.7) scale(1.03 1.03)" xlink:href="#circle"/><use width="1" height="1" transform="translate(1894.7 134.68) scale(1.03 1.03)" xlink:href="#circle"/><use width="1" height="1" transform="translate(1889.01 94.05) scale(1.03 1.03)" xlink:href="#circle"/><use width="1" height="1" transform="translate(1879.96 64.92) scale(1.03 1.03)" xlink:href="#circle"/><use width="1" height="1" transform="translate(1876.25 52.11) scale(1.03 1.03)" xlink:href="#circle"/><use width="1" height="1" transform="translate(1858.44 38.55) scale(1.03 1.03)" xlink:href="#circle"/><use width="1" height="1" transform="translate(1806.24 26.34) scale(1.03 1.03)" xlink:href="#circle"/><use width="1" height="1" transform="translate(1791.82 20.66) scale(1.03 1.03)" xlink:href="#circle"/><use width="1" height="1" transform="translate(1791.42 23.94) scale(1.03 1.03)" xlink:href="#circle"/><use width="1" height="1" transform="translate(1765.72 19.66) scale(1.03 1.03)" xlink:href="#circle"/><use width="1" height="1" transform="translate(1689.07 11.58) scale(1.03 1.03)" xlink:href="#circle"/><use width="1" height="1" transform="translate(1623.47 7.41) scale(1.03 1.03)" xlink:href="#circle"/><use width="1" height="1" transform="translate(1497.66 20.68) scale(1.03 1.03)" xlink:href="#circle"/><use width="1" height="1" transform="translate(1431.02 31.41) scale(1.03 1.03)" xlink:href="#circle"/><use width="1" height="1" transform="translate(1430.99 34.71) scale(1.03 1.03)" xlink:href="#circle"/><use width="1" height="1" transform="translate(1416.09 31.53) scale(1.03 1.03)" xlink:href="#circle"/><use width="1" height="1" transform="translate(1229.28 20.19) scale(1.03 1.03)" xlink:href="#circle"/><use width="1" height="1" transform="translate(1123.34 21.79) scale(1.03 1.03)" xlink:href="#circle"/><use width="1" height="1" transform="translate(1060.3 15.81) scale(1.03 1.03)" xlink:href="#circle"/><use width="1" height="1" transform="translate(985.16 15.84) scale(1.03 1.03)" xlink:href="#circle"/><use width="1" height="1" transform="translate(900.34 19.51) scale(1.03 1.03)" xlink:href="#circle"/><use width="1" height="1" transform="translate(785.95 17.98) scale(1.03 1.03)" xlink:href="#circle"/><use width="1" height="1" transform="translate(745.82 19.46) scale(1.03 1.03)" xlink:href="#circle"/><use width="1" height="1" transform="translate(745.73 22.77) scale(1.03 1.03)" xlink:href="#circle"/><use width="1" height="1" transform="translate(732.97 19.82) scale(1.03 1.03)" xlink:href="#circle"/><use width="1" height="1" transform="translate(545.55 20.86) scale(1.03 1.03)" xlink:href="#circle"/><use width="1" height="1" transform="translate(445.51 13.86) scale(1.03 1.03)" xlink:href="#circle"/><use width="1" height="1" transform="translate(376.12 2.64) scale(1.03 1.03)" xlink:href="#circle"/><use width="1" height="1" transform="translate(322.39) scale(1.03 1.03)" xlink:href="#circle"/><use width="1" height="1" transform="translate(268.03 4.29) scale(1.03 1.03)" xlink:href="#circle"/><use width="1" height="1" transform="translate(191.6 17.98) scale(1.03 1.03)" xlink:href="#circle"/><use width="1" height="1" transform="translate(134.39 24.61) scale(1.03 1.03)" xlink:href="#circle"/><use width="1" height="1" transform="translate(85.44 29.16) scale(1.03 1.03)" xlink:href="#circle"/><use width="1" height="1" transform="translate(67.1 30.59) scale(1.03 1.03)" xlink:href="#circle"/><use width="1" height="1" transform="translate(69.07 33.3) scale(1.03 1.03)" xlink:href="#circle"/><use width="1" height="1" transform="translate(62.22 49.49) scale(1.03 1.03)" xlink:href="#circle"/><use width="1" height="1" transform="translate(35.38 134.56) scale(1.03 1.03)" xlink:href="#circle"/><use width="1" height="1" transform="translate(26.91 221.07) scale(1.03 1.03)" xlink:href="#circle"/><use width="1" height="1" transform="translate(29.53 289.72) scale(1.03 1.03)" xlink:href="#circle"/><use width="1" height="1" transform="translate(26.66 341.37) scale(1.03 1.03)" xlink:href="#circle"/><use width="1" height="1" transform="translate(48.55 481.18) scale(1.03 1.03)" xlink:href="#circle"/><use width="1" height="1" transform="translate(116.14 555.32) scale(1.03 1.03)" xlink:href="#circle"/><use width="1" height="1" transform="translate(290.8 513.43) scale(1.03 1.03)" xlink:href="#circle"/><use width="1" height="1" transform="translate(276.47 367.17) scale(1.03 1.03)" xlink:href="#circle"/><use width="1" height="1" transform="translate(245.83 273.78) scale(1.03 1.03)" xlink:href="#circle"/><use width="1" height="1" transform="translate(229.22 204.07) scale(1.03 1.03)" xlink:href="#circle"/><use width="1" height="1" transform="translate(221.7 163.18) scale(1.03 1.03)" xlink:href="#circle"/><use width="1" height="1" transform="translate(258.44 358.05) scale(1.03 1.03)" xlink:href="#circle"/><use width="1" height="1" transform="translate(306.56 800.29) scale(1.03 1.03)" xlink:href="#circle"/><use width="1" height="1" transform="translate(345.45 892.08) scale(1.03 1.03)" xlink:href="#circle"/><use width="1" height="1" transform="translate(369.2 787.5) scale(1.03 1.03)" xlink:href="#circle"/><use width="1" height="1" transform="translate(381.45 425.49) scale(1.03 1.03)" xlink:href="#circle"/><use width="1" height="1" transform="translate(347.43 272.7) scale(1.03 1.03)" xlink:href="#circle"/><use width="1" height="1" transform="translate(325.88 217.35) scale(1.03 1.03)" xlink:href="#circle"/><use width="1" height="1" transform="translate(333.78 220.79) scale(1.03 1.03)" xlink:href="#circle"/><use width="1" height="1" transform="translate(479.77 413.3) scale(1.03 1.03)" xlink:href="#circle"/><use width="1" height="1" transform="translate(644.74 608.03) scale(1.03 1.03)" xlink:href="#circle"/><use width="1" height="1" transform="translate(786.75 453.15) scale(1.03 1.03)" xlink:href="#circle"/><use width="1" height="1" transform="translate(594.65 252.91) scale(1.03 1.03)" xlink:href="#circle"/><use width="1" height="1" transform="translate(550.67 408.56) scale(1.03 1.03)" xlink:href="#circle"/><use width="1" height="1" transform="translate(781.41 331.22) scale(1.03 1.03)" xlink:href="#circle"/><use width="1" height="1" transform="translate(554.28 196.82) scale(1.03 1.03)" xlink:href="#circle"/><use width="1" height="1" transform="translate(749.22 351.52) scale(1.03 1.03)" xlink:href="#circle"/><use width="1" height="1" transform="translate(1167.08 350.93) scale(1.03 1.03)" xlink:href="#circle"/><use width="1" height="1" transform="translate(1355.02 338.22) scale(1.03 1.03)" xlink:href="#circle"/><use width="1" height="1" transform="translate(1448.53 330.97) scale(1.03 1.03)" xlink:href="#circle"/><use width="1" height="1" transform="translate(1433.66 200.07) scale(1.03 1.03)" xlink:href="#circle"/><use width="1" height="1" transform="translate(924.95 202.76) scale(1.03 1.03)" xlink:href="#circle"/><use width="1" height="1" transform="translate(869.21 267.76) scale(1.03 1.03)" xlink:href="#circle"/><use width="1" height="1" transform="translate(1042.43 254.39) scale(1.03 1.03)" xlink:href="#circle"/><use width="1" height="1" transform="translate(1553.02 257) scale(1.03 1.03)" xlink:href="#circle"/><use width="1" height="1" transform="translate(1626.97 300.02) scale(1.03 1.03)" xlink:href="#circle"/><use width="1" height="1" transform="translate(1592.23 337.17) scale(1.03 1.03)" xlink:href="#circle"/><use width="1" height="1" transform="translate(1230.88 332.99) scale(1.03 1.03)" xlink:href="#circle"/><use width="1" height="1" transform="translate(652.48 377.9) scale(1.03 1.03)" xlink:href="#circle"/><use width="1" height="1" transform="translate(600.89 468.43) scale(1.03 1.03)" xlink:href="#circle"/><use width="1" height="1" transform="translate(1048.11 491.45) scale(1.03 1.03)" xlink:href="#circle"/><use width="1" height="1" transform="translate(1301.74 471.48) scale(1.03 1.03)" xlink:href="#circle"/><use width="1" height="1" transform="translate(1316.21 481.57) scale(1.03 1.03)" xlink:href="#circle"/><use width="1" height="1" transform="translate(986.27 460.57) scale(1.03 1.03)" xlink:href="#circle"/><use width="1" height="1" transform="translate(671.04 538.69) scale(1.03 1.03)" xlink:href="#circle"/><use width="1" height="1" transform="translate(698.53 612.92) scale(1.03 1.03)" xlink:href="#circle"/><use width="1" height="1" transform="translate(1262.92 652.42) scale(1.03 1.03)" xlink:href="#circle"/><use width="1" height="1" transform="translate(1522.72 719.28) scale(1.03 1.03)" xlink:href="#circle"/><use width="1" height="1" transform="translate(1547.28 735.68) scale(1.03 1.03)" xlink:href="#circle"/><use width="1" height="1" transform="translate(1374.21 766.97) scale(1.03 1.03)" xlink:href="#circle"/><use width="1" height="1" transform="translate(1141.7 810.82) scale(1.03 1.03)" xlink:href="#circle"/><use width="1" height="1" transform="translate(1041.98 824.9) scale(1.03 1.03)" xlink:href="#circle"/><use width="1" height="1" transform="translate(1593.93 173.44) scale(1.03 1.03)" xlink:href="#circle"/><use width="1" height="1" transform="translate(1654 212.58) scale(1.03 1.03)" xlink:href="#circle"/><use width="1" height="1" transform="translate(1699.72 533.18) scale(1.03 1.03)" xlink:href="#circle"/><use width="1" height="1" transform="translate(1600.65 719.91) scale(1.03 1.03)" xlink:href="#circle"/><use width="1" height="1" transform="translate(1571.81 778) scale(1.03 1.03)" xlink:href="#circle"/><use width="1" height="1" transform="translate(1657.37 791.51) scale(1.03 1.03)" xlink:href="#circle"/><use width="1" height="1" transform="translate(1705.37 781.89) scale(1.03 1.03)" xlink:href="#circle"/><use width="1" height="1" transform="translate(1723.8 835.3) scale(1.03 1.03)" xlink:href="#circle"/><use width="1" height="1" transform="translate(1656.17 902.83) scale(1.03 1.03)" xlink:href="#circle"/><use width="1" height="1" transform="translate(1435.82 908.41) scale(1.03 1.03)" xlink:href="#circle"/><use width="1" height="1" transform="translate(1270.71 884.14) scale(1.03 1.03)" xlink:href="#circle"/><use width="1" height="1" transform="translate(1144.5 856.3) scale(1.03 1.03)" xlink:href="#circle"/><use width="1" height="1" transform="translate(1082.21 847.83) scale(1.03 1.03)" xlink:href="#circle"/><use width="1" height="1" transform="translate(1033.37 892.71) scale(1.03 1.03)" xlink:href="#circle"/><use width="1" height="1" transform="translate(984.1 892.74) scale(1.03 1.03)" xlink:href="#circle"/><use width="1" height="1" transform="translate(946.42 891.53) scale(1.03 1.03)" xlink:href="#circle"/><use width="1" height="1" transform="translate(904.52 939.34) scale(1.03 1.03)" xlink:href="#circle"/><use width="1" height="1" transform="translate(893.41 955.31) scale(1.03 1.03)" xlink:href="#circle"/><use width="1" height="1" transform="translate(975.6 972.2) scale(1.03 1.03)" xlink:href="#circle"/><use width="1" height="1" transform="translate(1134.27 992.89) scale(1.03 1.03)" xlink:href="#circle"/><use width="1" height="1" transform="translate(1170.37 1010.54) scale(1.03 1.03)" xlink:href="#circle"/><use width="1" height="1" transform="translate(1168.67 1027.45) scale(1.03 1.03)" xlink:href="#circle"/><use width="1" height="1" transform="translate(1023.93 1015.35) scale(1.03 1.03)" xlink:href="#circle"/><use width="1" height="1" transform="translate(923.89 1003.3) scale(1.03 1.03)" xlink:href="#circle"/><use width="1" height="1" transform="translate(865.82 1000.05) scale(1.03 1.03)" xlink:href="#circle"/><use width="1" height="1" transform="translate(820.85 1007.36) scale(1.03 1.03)" xlink:href="#circle"/><use width="1" height="1" transform="translate(805.93 1010.77) scale(1.03 1.03)" xlink:href="#circle"/><use width="1" height="1" transform="translate(334.08 634.94) scale(1.03 1.03)" xlink:href="#circle"/><use width="1" height="1" transform="translate(402.22 739.08) scale(1.03 1.03)" xlink:href="#circle"/><use width="1" height="1" transform="translate(561.05 968.42) scale(1.03 1.03)" xlink:href="#circle"/><use width="1" height="1" transform="translate(564.93 951.76) scale(1.03 1.03)" xlink:href="#circle"/><use width="1" height="1" transform="translate(494.92 776.74) scale(1.03 1.03)" xlink:href="#circle"/><use width="1" height="1" transform="translate(437 669.29) scale(1.03 1.03)" xlink:href="#circle"/><use width="1" height="1" transform="translate(425.72 653.3) scale(1.03 1.03)" xlink:href="#circle"/><use width="1" height="1" transform="translate(476.44 697.13) scale(1.03 1.03)" xlink:href="#circle"/><use width="1" height="1" transform="translate(484.96 686.23) scale(1.03 1.03)" xlink:href="#circle"/><use width="1" height="1" transform="translate(385.97 565.21) scale(1.03 1.03)" xlink:href="#circle"/><use width="1" height="1" transform="translate(381.78 559.05) scale(1.03 1.03)" xlink:href="#circle"/><use width="1" height="1" transform="translate(384.97 557.8) scale(1.03 1.03)" xlink:href="#circle"/><use width="1" height="1" transform="translate(331.53 484.28) scale(1.03 1.03)" xlink:href="#circle"/><use width="1" height="1" transform="translate(401.07 531.33) scale(1.03 1.03)" xlink:href="#circle"/><use width="1" height="1" transform="translate(647.29 732.52) scale(1.03 1.03)" xlink:href="#circle"/><use width="1" height="1" transform="translate(616.92 677.38) scale(1.03 1.03)" xlink:href="#circle"/><use width="1" height="1" transform="translate(747.34 818.1) scale(1.03 1.03)" xlink:href="#circle"/><use width="1" height="1" transform="translate(691.09 686.87) scale(1.03 1.03)" xlink:href="#circle"/><use width="1" height="1" transform="translate(831.45 844.96) scale(1.03 1.03)" xlink:href="#circle"/><use width="1" height="1" transform="translate(762.66 634.69) scale(1.03 1.03)" xlink:href="#circle"/><use width="1" height="1" transform="translate(762.55 607.34) scale(1.03 1.03)" xlink:href="#circle"/><use width="1" height="1" transform="translate(837.54 710.45) scale(1.03 1.03)" xlink:href="#circle"/><use width="1" height="1" transform="translate(766.87 513.46) scale(1.03 1.03)" xlink:href="#circle"/><use width="1" height="1" transform="translate(890.71 668.22) scale(1.03 1.03)" xlink:href="#circle"/><use width="1" height="1" transform="translate(828.54 524.12) scale(1.03 1.03)" xlink:href="#circle"/><use width="1" height="1" transform="translate(1064.28 815.01) scale(1.03 1.03)" xlink:href="#circle"/><use width="1" height="1" transform="translate(1083.57 708.62) scale(1.03 1.03)" xlink:href="#circle"/><use width="1" height="1" transform="translate(1173.12 729.07) scale(1.03 1.03)" xlink:href="#circle"/><use width="1" height="1" transform="translate(1241.27 827.59) scale(1.03 1.03)" xlink:href="#circle"/><use width="1" height="1" transform="translate(1137.35 412.29) scale(1.03 1.03)" xlink:href="#circle"/><use width="1" height="1" transform="translate(1299.87 637.14) scale(1.03 1.03)" xlink:href="#circle"/><use width="1" height="1" transform="translate(1287.57 355.44) scale(1.03 1.03)" xlink:href="#circle"/><use width="1" height="1" transform="translate(1422.22 472.74) scale(1.03 1.03)" xlink:href="#circle"/><use width="1" height="1" transform="translate(245 424.72) scale(1.03 1.03)" xlink:href="#circle"/><use width="1" height="1" transform="translate(389.73 197.64) scale(1.03 1.03)" xlink:href="#circle"/><use width="1" height="1" transform="translate(366.05 249.96) scale(1.03 1.03)" xlink:href="#circle"/><use width="1" height="1" transform="translate(294.75 372.26) scale(1.03 1.03)" xlink:href="#circle"/><use width="1" height="1" transform="translate(318.06 250.3) scale(1.03 1.03)" xlink:href="#circle"/><use width="1" height="1" transform="translate(241.8 290.45) scale(1.03 1.03)" xlink:href="#circle"/><use width="1" height="1" transform="translate(420.57 400.2) scale(1.03 1.03)" xlink:href="#circle"/><use width="1" height="1" transform="translate(348.53 186.41) scale(1.03 1.03)" xlink:href="#circle"/><use width="1" height="1" transform="translate(180.41 291.72) scale(1.03 1.03)" xlink:href="#circle"/><use width="1" height="1" transform="translate(542.05 356.51) scale(1.03 1.03)" xlink:href="#circle"/><use width="1" height="1" transform="translate(590.67 212.29) scale(1.03 1.03)" xlink:href="#circle"/><use width="1" height="1" transform="translate(501 334.85) scale(1.03 1.03)" xlink:href="#circle"/><use width="1" height="1" transform="translate(601.21 346.64) scale(1.03 1.03)" xlink:href="#circle"/><use width="1" height="1" transform="translate(486.87 235.43) scale(1.03 1.03)" xlink:href="#circle"/><use width="1" height="1" transform="translate(525.48 327.36) scale(1.03 1.03)" xlink:href="#circle"/><use width="1" height="1" transform="translate(404.88 191.76) scale(1.03 1.03)" xlink:href="#circle"/><use width="1" height="1" transform="translate(535.17 248.86) scale(1.03 1.03)" xlink:href="#circle"/><use width="1" height="1" transform="translate(579.2 107.24) scale(1.03 1.03)" xlink:href="#circle"/><use width="1" height="1" transform="translate(546.36 108.87) scale(1.03 1.03)" xlink:href="#circle"/><use width="1" height="1" transform="translate(671.3 128.45) scale(1.03 1.03)" xlink:href="#circle"/><use width="1" height="1" transform="translate(568.04 77.01) scale(1.03 1.03)" xlink:href="#circle"/><use width="1" height="1" transform="translate(618.19 108.58) scale(1.03 1.03)" xlink:href="#circle"/><use width="1" height="1" transform="translate(702.55 79.81) scale(1.03 1.03)" xlink:href="#circle"/><use width="1" height="1" transform="translate(407.3 63.8) scale(1.03 1.03)" xlink:href="#circle"/><use width="1" height="1" transform="translate(537.21 100.31) scale(1.03 1.03)" xlink:href="#circle"/><use width="1" height="1" transform="translate(592.44 93.65) scale(1.03 1.03)" xlink:href="#circle"/><use width="1" height="1" transform="translate(238.5 91.32) scale(1.03 1.03)" xlink:href="#circle"/><use width="1" height="1" transform="translate(205.76 67.21) scale(1.03 1.03)" xlink:href="#circle"/><use width="1" height="1" transform="translate(154.23 38.55) scale(1.03 1.03)" xlink:href="#circle"/><use width="1" height="1" transform="translate(224.7 434.51) scale(1.03 1.03)" xlink:href="#circle"/><use width="1" height="1" transform="translate(225.48 479.17) scale(1.03 1.03)" xlink:href="#circle"/><use width="1" height="1" transform="translate(185.07 456.39) scale(1.03 1.03)" xlink:href="#circle"/><use width="1" height="1" transform="translate(195.37 546.68) scale(1.03 1.03)" xlink:href="#circle"/><use width="1" height="1" transform="translate(245.24 618.83) scale(1.03 1.03)" xlink:href="#circle"/><use width="1" height="1" transform="translate(176.34 544.94) scale(1.03 1.03)" xlink:href="#circle"/><use width="1" height="1" transform="translate(211.21 708.98) scale(1.03 1.03)" xlink:href="#circle"/><use width="1" height="1" transform="translate(142.32 651.34) scale(1.03 1.03)" xlink:href="#circle"/><use width="1" height="1" transform="translate(92.75 617.66) scale(1.03 1.03)" xlink:href="#circle"/><use width="1" height="1" transform="translate(93.09 613.99) scale(1.03 1.03)" xlink:href="#circle"/><use width="1" height="1" transform="translate(88.01 615.07) scale(1.03 1.03)" xlink:href="#circle"/><use width="1" height="1" transform="translate(40.81 563.55) scale(1.03 1.03)" xlink:href="#circle"/><use width="1" height="1" transform="translate(31.99 549.84) scale(1.03 1.03)" xlink:href="#circle"/><use width="1" height="1" transform="translate(30.63 560.3) scale(1.03 1.03)" xlink:href="#circle"/><use width="1" height="1" transform="translate(43.31 677.17) scale(1.03 1.03)" xlink:href="#circle"/><use width="1" height="1" transform="translate(70 772.54) scale(1.03 1.03)" xlink:href="#circle"/><use width="1" height="1" transform="translate(90.35 807.41) scale(1.03 1.03)" xlink:href="#circle"/><use width="1" height="1" transform="translate(157.23 829.95) scale(1.03 1.03)" xlink:href="#circle"/><use width="1" height="1" transform="translate(153.73 659.73) scale(1.03 1.03)" xlink:href="#circle"/><use width="1" height="1" transform="translate(246.91 710.43) scale(1.03 1.03)" xlink:href="#circle"/><use width="1" height="1" transform="translate(60.97 426.27) scale(1.03 1.03)" xlink:href="#circle"/><use width="1" height="1" transform="translate(61.56 419.92) scale(1.03 1.03)" xlink:href="#circle"/><use width="1" height="1" transform="translate(65.27 380.9) scale(1.03 1.03)" xlink:href="#circle"/><use width="1" height="1" transform="translate(68.98 366.62) scale(1.03 1.03)" xlink:href="#circle"/><use width="1" height="1" transform="translate(94.81 350.05) scale(1.03 1.03)" xlink:href="#circle"/><use width="1" height="1" transform="translate(79.81 353.28) scale(1.03 1.03)" xlink:href="#circle"/><use width="1" height="1" transform="translate(22.82 404.81) scale(1.03 1.03)" xlink:href="#circle"/><use width="1" height="1" transform="translate(4.16 426.64) scale(1.03 1.03)" xlink:href="#circle"/><use width="1" height="1" transform="translate(0 443.17) scale(1.03 1.03)" xlink:href="#circle"/><use width="1" height="1" transform="translate(5.58 458.03) scale(1.03 1.03)" xlink:href="#circle"/><use width="1" height="1" transform="translate(10.6 464.05) scale(1.03 1.03)" xlink:href="#circle"/><use width="1" height="1" transform="translate(867.45 495.93) scale(1.03 1.03)" xlink:href="#circle"/><use width="1" height="1" transform="translate(1020.52 609.17) scale(1.03 1.03)" xlink:href="#circle"/><use width="1" height="1" transform="translate(879.95 577.57) scale(1.03 1.03)" xlink:href="#circle"/><use width="1" height="1" transform="translate(904.75 816.44) scale(1.03 1.03)" xlink:href="#circle"/><use width="1" height="1" transform="translate(1019.17 621.61) scale(1.03 1.03)" xlink:href="#circle"/><use width="1" height="1" transform="translate(1025.25 658.16) scale(1.03 1.03)" xlink:href="#circle"/><use width="1" height="1" transform="translate(1117.21 657.07) scale(1.03 1.03)" xlink:href="#circle"/><use width="1" height="1" transform="translate(942.61 755.36) scale(1.03 1.03)" xlink:href="#circle"/><use width="1" height="1" transform="translate(945.94 759.43) scale(1.03 1.03)" xlink:href="#circle"/><use width="1" height="1" transform="translate(758.76 700.62) scale(1.03 1.03)" xlink:href="#circle"/><use width="1" height="1" transform="translate(928.01 721.59) scale(1.03 1.03)" xlink:href="#circle"/><use width="1" height="1" transform="translate(658.67 681.56) scale(1.03 1.03)" xlink:href="#circle"/><use width="1" height="1" transform="translate(763.61 769.48) scale(1.03 1.03)" xlink:href="#circle"/><use width="1" height="1" transform="translate(559.44 716.6) scale(1.03 1.03)" xlink:href="#circle"/><use width="1" height="1" transform="translate(597.4 833.79) scale(1.03 1.03)" xlink:href="#circle"/><use width="1" height="1" transform="translate(435.1 815.64) scale(1.03 1.03)" xlink:href="#circle"/><use width="1" height="1" transform="translate(406.52 865.04) scale(1.03 1.03)" xlink:href="#circle"/><use width="1" height="1" transform="translate(471.63 871.47) scale(1.03 1.03)" xlink:href="#circle"/><use width="1" height="1" transform="translate(371.37 892.66) scale(1.03 1.03)" xlink:href="#circle"/><use width="1" height="1" transform="translate(426.08 931.47) scale(1.03 1.03)" xlink:href="#circle"/><use width="1" height="1" transform="translate(597.73 1005.16) scale(1.03 1.03)" xlink:href="#circle"/><use width="1" height="1" transform="translate(563.13 1049.19) scale(1.03 1.03)" xlink:href="#circle"/><use width="1" height="1" transform="translate(515.95 1051.62) scale(1.03 1.03)" xlink:href="#circle"/><use width="1" height="1" transform="translate(487.98 1048.89) scale(1.03 1.03)" xlink:href="#circle"/><use width="1" height="1" transform="translate(468.95 1047.05) scale(1.03 1.03)" xlink:href="#circle"/><use width="1" height="1" transform="translate(431.09 1050.4) scale(1.03 1.03)" xlink:href="#circle"/><use width="1" height="1" transform="translate(385.6 1059.99) scale(1.03 1.03)" xlink:href="#circle"/><use width="1" height="1" transform="translate(324.11 1065.72) scale(1.03 1.03)" xlink:href="#circle"/><use width="1" height="1" transform="translate(274.71 1065.61) scale(1.03 1.03)" xlink:href="#circle"/><use width="1" height="1" transform="translate(241.64 1064.64) scale(1.03 1.03)" xlink:href="#circle"/><use width="1" height="1" transform="translate(194.88 1062.27) scale(1.03 1.03)" xlink:href="#circle"/><use width="1" height="1" transform="translate(166.77 1035.68) scale(1.03 1.03)" xlink:href="#circle"/><use width="1" height="1" transform="translate(98.67 1061.85) scale(1.03 1.03)" xlink:href="#circle"/><use width="1" height="1" transform="translate(71.67 1075.58) scale(1.03 1.03)" xlink:href="#circle"/><use width="1" height="1" transform="translate(56.85 1078.97) scale(1.03 1.03)" xlink:href="#circle"/><use width="1" height="1" transform="translate(40.24 1077.23) scale(1.03 1.03)" xlink:href="#circle"/><use width="1" height="1" transform="translate(19.79 1068.1) scale(1.03 1.03)" xlink:href="#circle"/><use width="1" height="1" transform="translate(11.23 1055.07) scale(1.03 1.03)" xlink:href="#circle"/><use width="1" height="1" transform="translate(10.65 1035.9) scale(1.03 1.03)" xlink:href="#circle"/><use width="1" height="1" transform="translate(17.21 1010.92) scale(1.03 1.03)" xlink:href="#circle"/><use width="1" height="1" transform="translate(23.31 1006.04) scale(1.03 1.03)" xlink:href="#circle"/><use width="1" height="1" transform="translate(1109.07 598.95) scale(1.03 1.03)" xlink:href="#circle"/><use width="1" height="1" transform="translate(1051.69 610.77) scale(1.03 1.03)" xlink:href="#circle"/><use width="1" height="1" transform="translate(963.97 470.36) scale(1.03 1.03)" xlink:href="#circle"/><use width="1" height="1" transform="translate(1123.62 615.37) scale(1.03 1.03)" xlink:href="#circle"/><use width="1" height="1" transform="translate(990.66 414.32) scale(1.03 1.03)" xlink:href="#circle"/><use width="1" height="1" transform="translate(794.32 681.96) scale(1.03 1.03)" xlink:href="#circle"/><use width="1" height="1" transform="translate(918.76 712.32) scale(1.03 1.03)" xlink:href="#circle"/><use width="1" height="1" transform="translate(886.58 573.17) scale(1.03 1.03)" xlink:href="#circle"/><use width="1" height="1" transform="translate(719.79 797.01) scale(1.03 1.03)" xlink:href="#circle"/><use width="1" height="1" transform="translate(826.09 814.17) scale(1.03 1.03)" xlink:href="#circle"/><use width="1.72" height="1.72" transform="translate(1407.7 413.45) scale(1.03 1.03)" xlink:href="#star"/><use width="1.72" height="1.72" transform="translate(1261.07 564.91) scale(1.03 1.03)" xlink:href="#star"/><use width="1.72" height="1.72" transform="translate(1442.54 599.11) scale(1.03 1.03)" xlink:href="#star"/><use width="1.72" height="1.72" transform="translate(1296.84 446.29) scale(1.03 1.03)" xlink:href="#star"/><use width="1.72" height="1.72" transform="translate(1210.41 567.98) scale(1.03 1.03)" xlink:href="#star"/><use width="1.72" height="1.72" transform="translate(1441.62 447.61) scale(1.03 1.03)" xlink:href="#star"/><use width="1.72" height="1.72" transform="translate(1160.21 342.07) scale(1.03 1.03)" xlink:href="#star"/><use width="1.72" height="1.72" transform="translate(1174.96 498.84) scale(1.03 1.03)" xlink:href="#star"/><use width="1.72" height="1.72" transform="translate(1407.6 498.44) scale(1.03 1.03)" xlink:href="#star"/><use width="1.72" height="1.72" transform="translate(1487.39 654.16) scale(1.03 1.03)" xlink:href="#star"/><use width="1.72" height="1.72" transform="translate(1630.35 887.3) scale(1.03 1.03)" xlink:href="#star"/><use width="1.72" height="1.72" transform="translate(1581.31 813.65) scale(1.03 1.03)" xlink:href="#star"/><use width="1.72" height="1.72" transform="translate(1542.76 803.13) scale(1.03 1.03)" xlink:href="#star"/><use width="1.72" height="1.72" transform="translate(1316.85 765.64) scale(1.03 1.03)" xlink:href="#star"/><use width="1.72" height="1.72" transform="translate(1381.18 851.34) scale(1.03 1.03)" xlink:href="#star"/><use width="1.72" height="1.72" transform="translate(1307.19 833.75) scale(1.03 1.03)" xlink:href="#star"/><use width="1.72" height="1.72" transform="translate(1372.45 898.02) scale(1.03 1.03)" xlink:href="#star"/><use width="1.72" height="1.72" transform="translate(1363.48 864.76) scale(1.03 1.03)" xlink:href="#star"/><use width="1.72" height="1.72" transform="translate(736.5 287.43) scale(1.03 1.03)" xlink:href="#star"/><use width="1.72" height="1.72" transform="translate(829.22 296.48) scale(1.03 1.03)" xlink:href="#star"/><use width="1.72" height="1.72" transform="translate(397.57 253.94) scale(1.03 1.03)" xlink:href="#star"/><use width="1.72" height="1.72" transform="translate(573.54 258.93) scale(1.03 1.03)" xlink:href="#star"/><use width="1.72" height="1.72" transform="translate(1179.58 342.23) scale(1.03 1.03)" xlink:href="#star"/><use width="1.72" height="1.72" transform="translate(975.77 244.95) scale(1.03 1.03)" xlink:href="#star"/><use width="1.72" height="1.72" transform="translate(1305.09 266.68) scale(1.03 1.03)" xlink:href="#star"/><use width="1.72" height="1.72" transform="translate(1280.14 209.28) scale(1.03 1.03)" xlink:href="#star"/><use width="1.72" height="1.72" transform="translate(1309.7 216.39) scale(1.03 1.03)" xlink:href="#star"/><use width="1.72" height="1.72" transform="translate(1317.95 211.34) scale(1.03 1.03)" xlink:href="#star"/><use width="1.72" height="1.72" transform="translate(1408.43 299.71) scale(1.03 1.03)" xlink:href="#star"/><use width="1.72" height="1.72" transform="translate(1034.37 191.17) scale(1.03 1.03)" xlink:href="#star"/><use width="1.72" height="1.72" transform="translate(1239.01 264.82) scale(1.03 1.03)" xlink:href="#star"/><use width="1.72" height="1.72" transform="translate(903.8 136.16) scale(1.03 1.03)" xlink:href="#star"/><use width="1.72" height="1.72" transform="translate(965.37 172.21) scale(1.03 1.03)" xlink:href="#star"/><use width="1.72" height="1.72" transform="translate(890.31 147.38) scale(1.03 1.03)" xlink:href="#star"/><use width="1.72" height="1.72" transform="translate(930.23 168.89) scale(1.03 1.03)" xlink:href="#star"/><use width="1.72" height="1.72" transform="translate(1505.6 333.11) scale(1.03 1.03)" xlink:href="#star"/><use width="1.72" height="1.72" transform="translate(1512.16 262.36) scale(1.03 1.03)" xlink:href="#star"/><use width="1.72" height="1.72" transform="translate(1675.88 278.4) scale(1.03 1.03)" xlink:href="#star"/><use width="1.72" height="1.72" transform="translate(1706.53 269.47) scale(1.03 1.03)" xlink:href="#star"/><use width="1.72" height="1.72" transform="translate(1819.58 393.1) scale(1.03 1.03)" xlink:href="#star"/><use width="1.72" height="1.72" transform="translate(1791.89 241.39) scale(1.03 1.03)" xlink:href="#star"/><use width="1.72" height="1.72" transform="translate(1798.39 249.06) scale(1.03 1.03)" xlink:href="#star"/><use width="1.72" height="1.72" transform="translate(1769.61 102.57) scale(1.03 1.03)" xlink:href="#star"/><use width="1.72" height="1.72" transform="translate(1800.43 284.82) scale(1.03 1.03)" xlink:href="#star"/><use width="1.72" height="1.72" transform="translate(1753.23 214.04) scale(1.03 1.03)" xlink:href="#star"/><use width="1.72" height="1.72" transform="translate(1851.07 372.42) scale(1.03 1.03)" xlink:href="#star"/><use width="1.72" height="1.72" transform="translate(1916.02 503.35) scale(1.03 1.03)" xlink:href="#star"/><use width="1.72" height="1.72" transform="translate(1850.61 502.94) scale(1.03 1.03)" xlink:href="#star"/><use width="1.72" height="1.72" transform="translate(1823.67 597.99) scale(1.03 1.03)" xlink:href="#star"/><use width="1.72" height="1.72" transform="translate(1821.52 594.31) scale(1.03 1.03)" xlink:href="#star"/><use width="1.72" height="1.72" transform="translate(1821.57 630.06) scale(1.03 1.03)" xlink:href="#star"/><use width="1.72" height="1.72" transform="translate(1802.08 829.9) scale(1.03 1.03)" xlink:href="#star"/><use width="1.72" height="1.72" transform="translate(1824.9 508.3) scale(1.03 1.03)" xlink:href="#star"/><use width="1.72" height="1.72" transform="translate(1853.92 559.79) scale(1.03 1.03)" xlink:href="#star"/><use width="1.72" height="1.72" transform="translate(1866.29 582.03) scale(1.03 1.03)" xlink:href="#star"/><use width="1.72" height="1.72" transform="translate(1859.94 568.83) scale(1.03 1.03)" xlink:href="#star"/><use width="1.72" height="1.72" transform="translate(1874.85 612.73) scale(1.03 1.03)" xlink:href="#star"/><use width="1.72" height="1.72" transform="translate(1881.06 602.86) scale(1.03 1.03)" xlink:href="#star"/><use width="1.72" height="1.72" transform="translate(1904.84 676.94) scale(1.03 1.03)" xlink:href="#star"/><use width="1.72" height="1.72" transform="translate(1900.24 598.64) scale(1.03 1.03)" xlink:href="#star"/><use width="1.72" height="1.72" transform="translate(1918.23 641.32) scale(1.03 1.03)" xlink:href="#star"/><use width="1.72" height="1.72" transform="translate(1916.82 687.47) scale(1.03 1.03)" xlink:href="#star"/><use width="1.72" height="1.72" transform="translate(1915.9 858.52) scale(1.03 1.03)" xlink:href="#star"/><use width="1.72" height="1.72" transform="translate(1917.81 913.41) scale(1.03 1.03)" xlink:href="#star"/><use width="1.72" height="1.72" transform="translate(1917.35 922.58) scale(1.03 1.03)" xlink:href="#star"/><use width="1.72" height="1.72" transform="translate(1913.64 909.99) scale(1.03 1.03)" xlink:href="#star"/><use width="1.72" height="1.72" transform="translate(1736.91 563.8) scale(1.03 1.03)" xlink:href="#star"/><use width="1.72" height="1.72" transform="translate(1679.98 482.03) scale(1.03 1.03)" xlink:href="#star"/><use width="1.72" height="1.72" transform="translate(1782.22 726.86) scale(1.03 1.03)" xlink:href="#star"/><use width="1.72" height="1.72" transform="translate(1733.71 625.79) scale(1.03 1.03)" xlink:href="#star"/><use width="1.72" height="1.72" transform="translate(1563.64 268.28) scale(1.03 1.03)" xlink:href="#star"/><use width="1.72" height="1.72" transform="translate(1688.68 502.63) scale(1.03 1.03)" xlink:href="#star"/><use width="1.72" height="1.72" transform="translate(1688.45 516.89) scale(1.03 1.03)" xlink:href="#star"/><use width="1.72" height="1.72" transform="translate(1597.27 461.57) scale(1.03 1.03)" xlink:href="#star"/><use width="1.72" height="1.72" transform="translate(1681.21 685.79) scale(1.03 1.03)" xlink:href="#star"/><use width="1.72" height="1.72" transform="translate(1580.91 423.32) scale(1.03 1.03)" xlink:href="#star"/><use width="1.72" height="1.72" transform="translate(1591.19 443.2) scale(1.03 1.03)" xlink:href="#star"/><use width="1.72" height="1.72" transform="translate(1616.59 434.33) scale(1.03 1.03)" xlink:href="#star"/><use width="1.72" height="1.72" transform="translate(1531.52 454.06) scale(1.03 1.03)" xlink:href="#star"/><use width="1.72" height="1.72" transform="translate(1683.63 485.94) scale(1.03 1.03)" xlink:href="#star"/><use width="1.72" height="1.72" transform="translate(1634.4 375.99) scale(1.03 1.03)" xlink:href="#star"/><use width="1.72" height="1.72" transform="translate(1484.26 711.67) scale(1.03 1.03)" xlink:href="#star"/><use width="1.72" height="1.72" transform="translate(1697.25 641.86) scale(1.03 1.03)" xlink:href="#star"/><use width="1.72" height="1.72" transform="translate(1561.75 561.19) scale(1.03 1.03)" xlink:href="#star"/><use width="1.72" height="1.72" transform="translate(1647.51 688.46) scale(1.03 1.03)" xlink:href="#star"/><use width="1.72" height="1.72" transform="translate(1585.19 649.07) scale(1.03 1.03)" xlink:href="#star"/><use width="1.72" height="1.72" transform="translate(1498.4 631.36) scale(1.03 1.03)" xlink:href="#star"/><use width="1.72" height="1.72" transform="translate(1534.68 764.59) scale(1.03 1.03)" xlink:href="#star"/><use width="1.72" height="1.72" transform="translate(1327.25 632.11) scale(1.03 1.03)" xlink:href="#star"/><use width="1.72" height="1.72" transform="translate(1250.11 562.98) scale(1.03 1.03)" xlink:href="#star"/><use width="1.72" height="1.72" transform="translate(1414.97 747) scale(1.03 1.03)" xlink:href="#star"/><use width="1.72" height="1.72" transform="translate(1348.56 584.22) scale(1.03 1.03)" xlink:href="#star"/><use width="1.72" height="1.72" transform="translate(1179.8 387.88) scale(1.03 1.03)" xlink:href="#star"/><use width="1.72" height="1.72" transform="translate(1165.82 380.09) scale(1.03 1.03)" xlink:href="#star"/><use width="1.72" height="1.72" transform="translate(1234.59 480.27) scale(1.03 1.03)" xlink:href="#star"/><use width="1.72" height="1.72" transform="translate(1271.61 520.29) scale(1.03 1.03)" xlink:href="#star"/><use width="1.72" height="1.72" transform="translate(1324.04 250.7) scale(1.03 1.03)" xlink:href="#star"/><use width="1.72" height="1.72" transform="translate(1368.72 237.86) scale(1.03 1.03)" xlink:href="#star"/><use width="1.72" height="1.72" transform="translate(1498.71 222.07) scale(1.03 1.03)" xlink:href="#star"/><use width="1.72" height="1.72" transform="translate(1457.97 208.93) scale(1.03 1.03)" xlink:href="#star"/><use width="1.72" height="1.72" transform="translate(1302.76 167.86) scale(1.03 1.03)" xlink:href="#star"/><use width="1.72" height="1.72" transform="translate(1285.94 149.21) scale(1.03 1.03)" xlink:href="#star"/><use width="1.72" height="1.72" transform="translate(1458.93 151.14) scale(1.03 1.03)" xlink:href="#star"/><use width="1.72" height="1.72" transform="translate(1265.85 715.12) scale(1.03 1.03)" xlink:href="#star"/><use width="1.72" height="1.72" transform="translate(1190.11 710.75) scale(1.03 1.03)" xlink:href="#star"/><use width="1.72" height="1.72" transform="translate(1175.47 815.05) scale(1.03 1.03)" xlink:href="#star"/><use width="1.72" height="1.72" transform="translate(1403.65 769.24) scale(1.03 1.03)" xlink:href="#star"/><use width="1.72" height="1.72" transform="translate(1253.52 781.9) scale(1.03 1.03)" xlink:href="#star"/><use width="1.72" height="1.72" transform="translate(1461.63 880.56) scale(1.03 1.03)" xlink:href="#star"/><use width="1.72" height="1.72" transform="translate(1560.68 797.38) scale(1.03 1.03)" xlink:href="#star"/><use width="1.72" height="1.72" transform="translate(1607.44 815.81) scale(1.03 1.03)" xlink:href="#star"/><use width="1.72" height="1.72" transform="translate(1682.35 840.97) scale(1.03 1.03)" xlink:href="#star"/><use width="1.72" height="1.72" transform="translate(1720.72 850.96) scale(1.03 1.03)" xlink:href="#star"/><use width="1.72" height="1.72" transform="translate(1719.59 893.23) scale(1.03 1.03)" xlink:href="#star"/><use width="1.72" height="1.72" transform="translate(1638.31 921.49) scale(1.03 1.03)" xlink:href="#star"/><use width="1.72" height="1.72" transform="translate(1639.46 941.49) scale(1.03 1.03)" xlink:href="#star"/><use width="1.72" height="1.72" transform="translate(1719.91 964.14) scale(1.03 1.03)" xlink:href="#star"/><use width="1.72" height="1.72" transform="translate(1758.75 967.73) scale(1.03 1.03)" xlink:href="#star"/><use width="1.72" height="1.72" transform="translate(1779.46 988.18) scale(1.03 1.03)" xlink:href="#star"/><use width="1.72" height="1.72" transform="translate(1716.54 999.2) scale(1.03 1.03)" xlink:href="#star"/><use width="1.72" height="1.72" transform="translate(1669.04 1004.95) scale(1.03 1.03)" xlink:href="#star"/><use width="1.72" height="1.72" transform="translate(1677.31 1018.78) scale(1.03 1.03)" xlink:href="#star"/><use width="1.72" height="1.72" transform="translate(1747.23 1035.43) scale(1.03 1.03)" xlink:href="#star"/><use width="1.72" height="1.72" transform="translate(1790.35 1039.56) scale(1.03 1.03)" xlink:href="#star"/><use width="1.72" height="1.72" transform="translate(1808.93 1040.82) scale(1.03 1.03)" xlink:href="#star"/><use width="1.72" height="1.72" transform="translate(1814.44 1051.76) scale(1.03 1.03)" xlink:href="#star"/><use width="1.72" height="1.72" transform="translate(1754.35 1056.53) scale(1.03 1.03)" xlink:href="#star"/><use width="1.72" height="1.72" transform="translate(1657.13 1053.27) scale(1.03 1.03)" xlink:href="#star"/><use width="1.72" height="1.72" transform="translate(1517.41 1056.8) scale(1.03 1.03)" xlink:href="#star"/><use width="1.72" height="1.72" transform="translate(1321.85 1057.06) scale(1.03 1.03)" xlink:href="#star"/><use width="1.72" height="1.72" transform="translate(1174.89 1047.57) scale(1.03 1.03)" xlink:href="#star"/><use width="1.72" height="1.72" transform="translate(1118.18 1039.17) scale(1.03 1.03)" xlink:href="#star"/><use width="1.72" height="1.72" transform="translate(1111.66 1036.16) scale(1.03 1.03)" xlink:href="#star"/><use width="1.72" height="1.72" transform="translate(1375.27 1000.27) scale(1.03 1.03)" xlink:href="#star"/><use width="1.72" height="1.72" transform="translate(1315.72 938.26) scale(1.03 1.03)" xlink:href="#star"/><use width="1.72" height="1.72" transform="translate(1407.85 926) scale(1.03 1.03)" xlink:href="#star"/><use width="1.72" height="1.72" transform="translate(1498.3 926.68) scale(1.03 1.03)" xlink:href="#star"/><use width="1.72" height="1.72" transform="translate(1297.69 907.61) scale(1.03 1.03)" xlink:href="#star"/><use width="1.72" height="1.72" transform="translate(1326.65 977.64) scale(1.03 1.03)" xlink:href="#star"/><use width="1.72" height="1.72" transform="translate(1474.74 947.3) scale(1.03 1.03)" xlink:href="#star"/><use width="1.72" height="1.72" transform="translate(1483.35 894.88) scale(1.03 1.03)" xlink:href="#star"/><use width="1.72" height="1.72" transform="translate(1530.53 923.6) scale(1.03 1.03)" xlink:href="#star"/><use width="1.72" height="1.72" transform="translate(1510.67 826.35) scale(1.03 1.03)" xlink:href="#star"/><use width="1.72" height="1.72" transform="translate(1477.22 845.66) scale(1.03 1.03)" xlink:href="#star"/><use width="1.72" height="1.72" transform="translate(1552.71 831) scale(1.03 1.03)" xlink:href="#star"/><use width="1.72" height="1.72" transform="translate(1292.81 706.91) scale(1.03 1.03)" xlink:href="#star"/><use width="1.72" height="1.72" transform="translate(1236.47 897.03) scale(1.03 1.03)" xlink:href="#star"/><use width="1.72" height="1.72" transform="translate(1278.52 890.13) scale(1.03 1.03)" xlink:href="#star"/><use width="1.72" height="1.72" transform="translate(1207.84 900.93) scale(1.03 1.03)" xlink:href="#star"/><use width="1.72" height="1.72" transform="translate(1264.51 900.31) scale(1.03 1.03)" xlink:href="#star"/><use width="1.72" height="1.72" transform="translate(1201.85 891.37) scale(1.03 1.03)" xlink:href="#star"/><use width="1.72" height="1.72" transform="translate(1171.22 939.2) scale(1.03 1.03)" xlink:href="#star"/><use width="1.72" height="1.72" transform="translate(1085.77 937.99) scale(1.03 1.03)" xlink:href="#star"/><use width="1.72" height="1.72" transform="translate(999.74 963.77) scale(1.03 1.03)" xlink:href="#star"/><use width="1.72" height="1.72" transform="translate(989.43 987.56) scale(1.03 1.03)" xlink:href="#star"/><use width="1.72" height="1.72" transform="translate(997.44 1002.61) scale(1.03 1.03)" xlink:href="#star"/><use width="1.72" height="1.72" transform="translate(1052.72 1018) scale(1.03 1.03)" xlink:href="#star"/><use width="1.72" height="1.72" transform="translate(1062.58 1022.71) scale(1.03 1.03)" xlink:href="#star"/><use width="1.72" height="1.72" transform="translate(1032.11 1032.34) scale(1.03 1.03)" xlink:href="#star"/><use width="1.72" height="1.72" transform="translate(987.86 1039.94) scale(1.03 1.03)" xlink:href="#star"/><use width="1.72" height="1.72" transform="translate(910.59 1047.18) scale(1.03 1.03)" xlink:href="#star"/><use width="1.72" height="1.72" transform="translate(845.53 1057.4) scale(1.03 1.03)" xlink:href="#star"/><use width="1.72" height="1.72" transform="translate(786.2 1053.16) scale(1.03 1.03)" xlink:href="#star"/><use width="1.72" height="1.72" transform="translate(755.9 1039.24) scale(1.03 1.03)" xlink:href="#star"/><use width="1.72" height="1.72" transform="translate(734.77 991.58) scale(1.03 1.03)" xlink:href="#star"/><use width="1.72" height="1.72" transform="translate(726.46 922.84) scale(1.03 1.03)" xlink:href="#star"/><use width="1.72" height="1.72" transform="translate(784.9 921) scale(1.03 1.03)" xlink:href="#star"/><use width="1.72" height="1.72" transform="translate(836.24 935.13) scale(1.03 1.03)" xlink:href="#star"/><use width="1.72" height="1.72" transform="translate(199.92 668.71) scale(1.03 1.03)" xlink:href="#star"/><use width="1.72" height="1.72" transform="translate(193.85 689.09) scale(1.03 1.03)" xlink:href="#star"/><use width="1.72" height="1.72" transform="translate(123.71 567.88) scale(1.03 1.03)" xlink:href="#star"/><use width="1.72" height="1.72" transform="translate(145.13 842.07) scale(1.03 1.03)" xlink:href="#star"/><use width="1.72" height="1.72" transform="translate(238.83 867.64) scale(1.03 1.03)" xlink:href="#star"/><use width="1.72" height="1.72" transform="translate(267.67 757.01) scale(1.03 1.03)" xlink:href="#star"/><use width="1.72" height="1.72" transform="translate(232.73 838.08) scale(1.03 1.03)" xlink:href="#star"/><use width="1.72" height="1.72" transform="translate(259.86 911.11) scale(1.03 1.03)" xlink:href="#star"/><use width="1.72" height="1.72" transform="translate(202.7 864.02) scale(1.03 1.03)" xlink:href="#star"/><use width="1.72" height="1.72" transform="translate(189.1 950.72) scale(1.03 1.03)" xlink:href="#star"/><use width="1.72" height="1.72" transform="translate(245.13 911.23) scale(1.03 1.03)" xlink:href="#star"/><use width="1.72" height="1.72" transform="translate(110.49 883.74) scale(1.03 1.03)" xlink:href="#star"/><use width="1.72" height="1.72" transform="translate(206.1 910.09) scale(1.03 1.03)" xlink:href="#star"/><use width="1.72" height="1.72" transform="translate(307.56 636.58) scale(1.03 1.03)" xlink:href="#star"/><use width="1.72" height="1.72" transform="translate(202.06 689.92) scale(1.03 1.03)" xlink:href="#star"/><use width="1.72" height="1.72" transform="translate(480.65 557.87) scale(1.03 1.03)" xlink:href="#star"/><use width="1.72" height="1.72" transform="translate(346.41 611.4) scale(1.03 1.03)" xlink:href="#star"/><use width="1.72" height="1.72" transform="translate(486.23 677.73) scale(1.03 1.03)" xlink:href="#star"/><use width="1.72" height="1.72" transform="translate(432.41 567.47) scale(1.03 1.03)" xlink:href="#star"/><use width="1.72" height="1.72" transform="translate(385.61 691.55) scale(1.03 1.03)" xlink:href="#star"/><use width="1.72" height="1.72" transform="translate(492.97 619.78) scale(1.03 1.03)" xlink:href="#star"/><use width="1.72" height="1.72" transform="translate(439.1 563.69) scale(1.03 1.03)" xlink:href="#star"/><use width="1.72" height="1.72" transform="translate(521.98 775.94) scale(1.03 1.03)" xlink:href="#star"/><use width="1.72" height="1.72" transform="translate(536.98 645.51) scale(1.03 1.03)" xlink:href="#star"/><use width="1.72" height="1.72" transform="translate(494.3 876.15) scale(1.03 1.03)" xlink:href="#star"/><use width="1.72" height="1.72" transform="translate(598.71 942.56) scale(1.03 1.03)" xlink:href="#star"/><use width="1.72" height="1.72" transform="translate(422.74 885.95) scale(1.03 1.03)" xlink:href="#star"/><use width="1.72" height="1.72" transform="translate(376.33 673.31) scale(1.03 1.03)" xlink:href="#star"/><use width="1.72" height="1.72" transform="translate(436.27 650.25) scale(1.03 1.03)" xlink:href="#star"/><use width="1.72" height="1.72" transform="translate(317.52 579.63) scale(1.03 1.03)" xlink:href="#star"/><use width="1.72" height="1.72" transform="translate(273.11 557.51) scale(1.03 1.03)" xlink:href="#star"/><use width="1.72" height="1.72" transform="translate(265.02 556.36) scale(1.03 1.03)" xlink:href="#star"/><use width="1.72" height="1.72" transform="translate(266.81 552.14) scale(1.03 1.03)" xlink:href="#star"/><use width="1.72" height="1.72" transform="translate(266.89 621.82) scale(1.03 1.03)" xlink:href="#star"/><use width="1.72" height="1.72" transform="translate(313.91 731.32) scale(1.03 1.03)" xlink:href="#star"/><use width="1.72" height="1.72" transform="translate(303.57 696.65) scale(1.03 1.03)" xlink:href="#star"/><use width="1.72" height="1.72" transform="translate(359.66 725.23) scale(1.03 1.03)" xlink:href="#star"/><use width="1.72" height="1.72" transform="translate(362.27 808.75) scale(1.03 1.03)" xlink:href="#star"/><use width="1.72" height="1.72" transform="translate(404.17 812.7) scale(1.03 1.03)" xlink:href="#star"/><use width="1.72" height="1.72" transform="translate(758.23 484.53) scale(1.03 1.03)" xlink:href="#star"/><use width="1.72" height="1.72" transform="translate(872.16 400.08) scale(1.03 1.03)" xlink:href="#star"/><use width="1.72" height="1.72" transform="translate(1251.17 296.1) scale(1.03 1.03)" xlink:href="#star"/><use width="1.72" height="1.72" transform="translate(1427.02 339.23) scale(1.03 1.03)" xlink:href="#star"/><use width="1.72" height="1.72" transform="translate(1443.18 323.44) scale(1.03 1.03)" xlink:href="#star"/><use width="1.72" height="1.72" transform="translate(1264.89 190.22) scale(1.03 1.03)" xlink:href="#star"/><use width="1.72" height="1.72" transform="translate(1021.67 222.8) scale(1.03 1.03)" xlink:href="#star"/><use width="1.72" height="1.72" transform="translate(985.81 300.51) scale(1.03 1.03)" xlink:href="#star"/><use width="1.72" height="1.72" transform="translate(1294.05 294.06) scale(1.03 1.03)" xlink:href="#star"/><use width="1.72" height="1.72" transform="translate(1309.21 232.56) scale(1.03 1.03)" xlink:href="#star"/><use width="1.72" height="1.72" transform="translate(1016.21 164.89) scale(1.03 1.03)" xlink:href="#star"/><use width="1.72" height="1.72" transform="translate(1111.22 207.31) scale(1.03 1.03)" xlink:href="#star"/><use width="1.72" height="1.72" transform="translate(1255.14 185.72) scale(1.03 1.03)" xlink:href="#star"/><use width="1.72" height="1.72" transform="translate(1106.96 99.75) scale(1.03 1.03)" xlink:href="#star"/><use width="1.72" height="1.72" transform="translate(1093.47 112.09) scale(1.03 1.03)" xlink:href="#star"/><use width="1.72" height="1.72" transform="translate(1435.13 159.26) scale(1.03 1.03)" xlink:href="#star"/><use width="1.72" height="1.72" transform="translate(1530.01 141.65) scale(1.03 1.03)" xlink:href="#star"/><use width="1.72" height="1.72" transform="translate(1588.34 130.28) scale(1.03 1.03)" xlink:href="#star"/><use width="1.72" height="1.72" transform="translate(1664.65 137.88) scale(1.03 1.03)" xlink:href="#star"/><use width="1.72" height="1.72" transform="translate(1683.22 128.63) scale(1.03 1.03)" xlink:href="#star"/><use width="1.72" height="1.72" transform="translate(1538.38 92.07) scale(1.03 1.03)" xlink:href="#star"/><use width="1.72" height="1.72" transform="translate(1238.92 70.56) scale(1.03 1.03)" xlink:href="#star"/><use width="1.72" height="1.72" transform="translate(1100.38 83.77) scale(1.03 1.03)" xlink:href="#star"/><use width="1.72" height="1.72" transform="translate(850.79 110.53) scale(1.03 1.03)" xlink:href="#star"/><use width="1.72" height="1.72" transform="translate(723.12 100.78) scale(1.03 1.03)" xlink:href="#star"/><use width="1.72" height="1.72" transform="translate(683.68 98.98) scale(1.03 1.03)" xlink:href="#star"/><use width="1.72" height="1.72" transform="translate(686.12 94.45) scale(1.03 1.03)" xlink:href="#star"/><use width="1.72" height="1.72" transform="translate(688.81 98.96) scale(1.03 1.03)" xlink:href="#star"/><use width="1.72" height="1.72" transform="translate(625.7 178.35) scale(1.03 1.03)" xlink:href="#star"/><use width="1.72" height="1.72" transform="translate(679.95 232.93) scale(1.03 1.03)" xlink:href="#star"/><use width="1.72" height="1.72" transform="translate(855.18 526.95) scale(1.03 1.03)" xlink:href="#star"/><use width="1.72" height="1.72" transform="translate(866.07 541.5) scale(1.03 1.03)" xlink:href="#star"/><use width="1.72" height="1.72" transform="translate(849 315.91) scale(1.03 1.03)" xlink:href="#star"/><use width="1.72" height="1.72" transform="translate(860.05 506.48) scale(1.03 1.03)" xlink:href="#star"/><use width="1.72" height="1.72" transform="translate(889.04 353.48) scale(1.03 1.03)" xlink:href="#star"/><use width="1.72" height="1.72" transform="translate(974.95 548.01) scale(1.03 1.03)" xlink:href="#star"/><use width="1.72" height="1.72" transform="translate(1116.09 460.9) scale(1.03 1.03)" xlink:href="#star"/><use width="1.72" height="1.72" transform="translate(1032.79 412.12) scale(1.03 1.03)" xlink:href="#star"/><use width="1.72" height="1.72" transform="translate(1230.54 524.35) scale(1.03 1.03)" xlink:href="#star"/><use width="1.72" height="1.72" transform="translate(1301.54 483.97) scale(1.03 1.03)" xlink:href="#star"/><use width="1.72" height="1.72" transform="translate(1297.87 481.7) scale(1.03 1.03)" xlink:href="#star"/><use width="1.72" height="1.72" transform="translate(1348 485.95) scale(1.03 1.03)" xlink:href="#star"/><use width="1.72" height="1.72" transform="translate(1501.88 469.58) scale(1.03 1.03)" xlink:href="#star"/><use width="1.72" height="1.72" transform="translate(1372.69 454.66) scale(1.03 1.03)" xlink:href="#star"/><use width="1.72" height="1.72" transform="translate(1452.03 531.18) scale(1.03 1.03)" xlink:href="#star"/><use width="1.72" height="1.72" transform="translate(1624.46 451.55) scale(1.03 1.03)" xlink:href="#star"/><use width="1.72" height="1.72" transform="translate(1558.11 458.62) scale(1.03 1.03)" xlink:href="#star"/><use width="1.72" height="1.72" transform="translate(1659.09 565.1) scale(1.03 1.03)" xlink:href="#star"/><use width="1.72" height="1.72" transform="translate(1645.67 445.47) scale(1.03 1.03)" xlink:href="#star"/><use width="1.72" height="1.72" transform="translate(1610.56 328.7) scale(1.03 1.03)" xlink:href="#star"/><use width="1.72" height="1.72" transform="translate(1721.56 333.16) scale(1.03 1.03)" xlink:href="#star"/><use width="1.72" height="1.72" transform="translate(1714.5 231.67) scale(1.03 1.03)" xlink:href="#star"/><use width="1.72" height="1.72" transform="translate(1707.54 195.83) scale(1.03 1.03)" xlink:href="#star"/><use width="1.72" height="1.72" transform="translate(1791.77 216.13) scale(1.03 1.03)" xlink:href="#star"/><use width="1.72" height="1.72" transform="translate(1783.67 152.7) scale(1.03 1.03)" xlink:href="#star"/><use width="1.72" height="1.72" transform="translate(1795.07 164.55) scale(1.03 1.03)" xlink:href="#star"/><use width="1.72" height="1.72" transform="translate(1792.28 455.74) scale(1.03 1.03)" xlink:href="#star"/><use width="1.72" height="1.72" transform="translate(1655.62 551.9) scale(1.03 1.03)" xlink:href="#star"/><use width="1.72" height="1.72" transform="translate(1526.67 488.38) scale(1.03 1.03)" xlink:href="#star"/><use width="1.72" height="1.72" transform="translate(1645.21 619.86) scale(1.03 1.03)" xlink:href="#star"/><use width="1.72" height="1.72" transform="translate(1529.7 565.87) scale(1.03 1.03)" xlink:href="#star"/><use width="1.72" height="1.72" transform="translate(1160.73 439.99) scale(1.03 1.03)" xlink:href="#star"/><use width="1.72" height="1.72" transform="translate(1001.18 325.26) scale(1.03 1.03)" xlink:href="#star"/><use width="1.72" height="1.72" transform="translate(985.23 288.83) scale(1.03 1.03)" xlink:href="#star"/><use width="1.72" height="1.72" transform="translate(1095.55 330.01) scale(1.03 1.03)" xlink:href="#star"/><use width="1.72" height="1.72" transform="translate(1115.98 345.14) scale(1.03 1.03)" xlink:href="#star"/><use width="1.72" height="1.72" transform="translate(1113.46 348.61) scale(1.03 1.03)" xlink:href="#star"/><use width="1.72" height="1.72" transform="translate(1044.42 340.59) scale(1.03 1.03)" xlink:href="#star"/><use width="1.72" height="1.72" transform="translate(896.69 334.35) scale(1.03 1.03)" xlink:href="#star"/><use width="1.72" height="1.72" transform="translate(1142.71 436.87) scale(1.03 1.03)" xlink:href="#star"/><use width="1.72" height="1.72" transform="translate(1112.65 368.58) scale(1.03 1.03)" xlink:href="#star"/><use width="1.72" height="1.72" transform="translate(1048.92 358.05) scale(1.03 1.03)" xlink:href="#star"/><use width="1.72" height="1.72" transform="translate(1201.11 427.15) scale(1.03 1.03)" xlink:href="#star"/><use width="1.72" height="1.72" transform="translate(1166.73 174.12) scale(1.03 1.03)" xlink:href="#star"/><use width="1.72" height="1.72" transform="translate(1173.75 300.4) scale(1.03 1.03)" xlink:href="#star"/><use width="1.72" height="1.72" transform="translate(1196.14 357.96) scale(1.03 1.03)" xlink:href="#star"/><use width="1.72" height="1.72" transform="translate(1196.65 352.88) scale(1.03 1.03)" xlink:href="#star"/><use width="1.72" height="1.72" transform="translate(1317.06 185.27) scale(1.03 1.03)" xlink:href="#star"/><use width="1.72" height="1.72" transform="translate(1241.06 197.32) scale(1.03 1.03)" xlink:href="#star"/><use width="1.72" height="1.72" transform="translate(1199.08 254.74) scale(1.03 1.03)" xlink:href="#star"/><use width="1.72" height="1.72" transform="translate(1328.03 248.73) scale(1.03 1.03)" xlink:href="#star"/><use width="1.72" height="1.72" transform="translate(1181.9 177.14) scale(1.03 1.03)" xlink:href="#star"/><use width="1.72" height="1.72" transform="translate(1308.06 221.88) scale(1.03 1.03)" xlink:href="#star"/><use width="1.72" height="1.72" transform="translate(1523.04 129.87) scale(1.03 1.03)" xlink:href="#star"/><use width="1.72" height="1.72" transform="translate(730.01 379.15) scale(1.03 1.03)" xlink:href="#star"/><use width="1.72" height="1.72" transform="translate(703.02 397.58) scale(1.03 1.03)" xlink:href="#star"/><use width="1.72" height="1.72" transform="translate(728.25 445.06) scale(1.03 1.03)" xlink:href="#star"/><use width="1.72" height="1.72" transform="translate(606.75 407.42) scale(1.03 1.03)" xlink:href="#star"/><use width="1.72" height="1.72" transform="translate(643.79 467.32) scale(1.03 1.03)" xlink:href="#star"/><use width="1.72" height="1.72" transform="translate(643.95 474.5) scale(1.03 1.03)" xlink:href="#star"/><use width="1.72" height="1.72" transform="translate(637.87 465.31) scale(1.03 1.03)" xlink:href="#star"/><use width="1.72" height="1.72" transform="translate(527.5 477.99) scale(1.03 1.03)" xlink:href="#star"/><use width="1.72" height="1.72" transform="translate(696.89 695.02) scale(1.03 1.03)" xlink:href="#star"/><use width="1.72" height="1.72" transform="translate(348.29 403.21) scale(1.03 1.03)" xlink:href="#star"/><use width="1.72" height="1.72" transform="translate(395.69 431.53) scale(1.03 1.03)" xlink:href="#star"/><use width="1.72" height="1.72" transform="translate(498.01 534.81) scale(1.03 1.03)" xlink:href="#star"/><use width="1.72" height="1.72" transform="translate(399.16 407.83) scale(1.03 1.03)" xlink:href="#star"/><use width="1.72" height="1.72" transform="translate(611.27 625.75) scale(1.03 1.03)" xlink:href="#star"/><use width="1.72" height="1.72" transform="translate(503.86 447.79) scale(1.03 1.03)" xlink:href="#star"/><use width="1.72" height="1.72" transform="translate(671.4 643.22) scale(1.03 1.03)" xlink:href="#star"/><use width="1.72" height="1.72" transform="translate(625.88 549.32) scale(1.03 1.03)" xlink:href="#star"/><use width="1.72" height="1.72" transform="translate(630.17 540.67) scale(1.03 1.03)" xlink:href="#star"/><use width="1.72" height="1.72" transform="translate(663.12 546.24) scale(1.03 1.03)" xlink:href="#star"/><use width="1.72" height="1.72" transform="translate(771.7 618.74) scale(1.03 1.03)" xlink:href="#star"/><use width="1.72" height="1.72" transform="translate(705.3 649.86) scale(1.03 1.03)" xlink:href="#star"/><use width="1.72" height="1.72" transform="translate(705.63 643.13) scale(1.03 1.03)" xlink:href="#star"/><use width="1.72" height="1.72" transform="translate(708.06 804.54) scale(1.03 1.03)" xlink:href="#star"/><use width="1.72" height="1.72" transform="translate(384.81 521.11) scale(1.03 1.03)" xlink:href="#star"/><use width="1.72" height="1.72" transform="translate(368.76 532.19) scale(1.03 1.03)" xlink:href="#star"/><use width="1.72" height="1.72" transform="translate(230.72 411.82) scale(1.03 1.03)" xlink:href="#star"/><use width="1.72" height="1.72" transform="translate(348.93 522.8) scale(1.03 1.03)" xlink:href="#star"/><use width="1.72" height="1.72" transform="translate(254.35 400.3) scale(1.03 1.03)" xlink:href="#star"/><use width="1.72" height="1.72" transform="translate(304.11 460.65) scale(1.03 1.03)" xlink:href="#star"/><use width="1.72" height="1.72" transform="translate(196.61 357.85) scale(1.03 1.03)" xlink:href="#star"/><use width="1.72" height="1.72" transform="translate(260.68 417.88) scale(1.03 1.03)" xlink:href="#star"/><use width="1.72" height="1.72" transform="translate(221.92 356.82) scale(1.03 1.03)" xlink:href="#star"/><use width="1.72" height="1.72" transform="translate(202.02 319.98) scale(1.03 1.03)" xlink:href="#star"/><use width="1.72" height="1.72" transform="translate(391.29 391.73) scale(1.03 1.03)" xlink:href="#star"/><use width="1.72" height="1.72" transform="translate(336.43 259.08) scale(1.03 1.03)" xlink:href="#star"/><use width="1.72" height="1.72" transform="translate(442.93 351.74) scale(1.03 1.03)" xlink:href="#star"/><use width="1.72" height="1.72" transform="translate(419.68 272.27) scale(1.03 1.03)" xlink:href="#star"/><use width="1.72" height="1.72" transform="translate(486.18 298.68) scale(1.03 1.03)" xlink:href="#star"/><use width="1.72" height="1.72" transform="translate(523.08 265.74) scale(1.03 1.03)" xlink:href="#star"/><use width="1.72" height="1.72" transform="translate(534.83 263.68) scale(1.03 1.03)" xlink:href="#star"/><use width="1.72" height="1.72" transform="translate(632.98 358.45) scale(1.03 1.03)" xlink:href="#star"/><use width="1.72" height="1.72" transform="translate(581.37 265.6) scale(1.03 1.03)" xlink:href="#star"/><use width="1.72" height="1.72" transform="translate(696.19 396.77) scale(1.03 1.03)" xlink:href="#star"/><use width="1.72" height="1.72" transform="translate(673.58 290.81) scale(1.03 1.03)" xlink:href="#star"/><use width="1.72" height="1.72" transform="translate(724.15 378.33) scale(1.03 1.03)" xlink:href="#star"/><use width="1.72" height="1.72" transform="translate(199.12 762.79) scale(1.03 1.03)" xlink:href="#star"/><use width="1.72" height="1.72" transform="translate(207.19 568.63) scale(1.03 1.03)" xlink:href="#star"/><use width="1.72" height="1.72" transform="translate(226.5 596.85) scale(1.03 1.03)" xlink:href="#star"/><use width="1.72" height="1.72" transform="translate(339.67 908.68) scale(1.03 1.03)" xlink:href="#star"/><use width="1.72" height="1.72" transform="translate(304.61 825.91) scale(1.03 1.03)" xlink:href="#star"/><use width="1.72" height="1.72" transform="translate(245.91 700.63) scale(1.03 1.03)" xlink:href="#star"/><use width="1.72" height="1.72" transform="translate(263.02 870.27) scale(1.03 1.03)" xlink:href="#star"/><use width="1.72" height="1.72" transform="translate(187.24 728.44) scale(1.03 1.03)" xlink:href="#star"/><use width="1" height="1" transform="translate(280.96 190.28) scale(1.03 1.03)" xlink:href="#circle"/><use width="1" height="1" transform="translate(186.98 112.42) scale(1.03 1.03)" xlink:href="#circle"/><use width="1" height="1" transform="translate(832.34 431.61) scale(1.03 1.03)" xlink:href="#circle"/><use width="1" height="1" transform="translate(605.93 641.22) scale(1.03 1.03)" xlink:href="#circle"/><use width="1" height="1" transform="translate(1114.21 707.18) scale(1.03 1.03)" xlink:href="#circle"/><use width="1" height="1" transform="translate(1047.21 533.28) scale(1.03 1.03)" xlink:href="#circle"/><use width="1" height="1" transform="translate(943.16 571.89) scale(1.03 1.03)" xlink:href="#circle"/><use width="1" height="1" transform="translate(994.29 592.58) scale(1.03 1.03)" xlink:href="#circle"/><use width="1" height="1" transform="translate(741.9 461.47) scale(1.03 1.03)" xlink:href="#circle"/><use width="1" height="1" transform="translate(721.46 576.36) scale(1.03 1.03)" xlink:href="#circle"/><use width="1" height="1" transform="translate(847.52 624.84) scale(1.03 1.03)" xlink:href="#circle"/><use width="1" height="1" transform="translate(732.75 569.68) scale(1.03 1.03)" xlink:href="#circle"/><use width="1" height="1" transform="translate(770.92 791.42) scale(1.03 1.03)" xlink:href="#circle"/><use width="1" height="1" transform="translate(790.68 747.8) scale(1.03 1.03)" xlink:href="#circle"/><use width="1" height="1" transform="translate(648.58 833.95) scale(1.03 1.03)" xlink:href="#circle"/><use width="1" height="1" transform="translate(648.75 905.7) scale(1.03 1.03)" xlink:href="#circle"/><use width="1" height="1" transform="translate(623.91 849.29) scale(1.03 1.03)" xlink:href="#circle"/><use width="1" height="1" transform="translate(528.19 874.27) scale(1.03 1.03)" xlink:href="#circle"/><use width="1" height="1" transform="translate(601.1 909.73) scale(1.03 1.03)" xlink:href="#circle"/><use width="1" height="1" transform="translate(495.4 834.76) scale(1.03 1.03)" xlink:href="#circle"/><use width="1" height="1" transform="translate(566.74 921.36) scale(1.03 1.03)" xlink:href="#circle"/><use width="1" height="1" transform="translate(622.94 929.76) scale(1.03 1.03)" xlink:href="#circle"/><use width="1" height="1" transform="translate(642.9 910.21) scale(1.03 1.03)" xlink:href="#circle"/><use width="1" height="1" transform="translate(1658.85 427.4) scale(1.03 1.03)" xlink:href="#circle"/><use width="1" height="1" transform="translate(1741.46 600.32) scale(1.03 1.03)" xlink:href="#circle"/><use width="1" height="1" transform="translate(1862.57 982.73) scale(1.03 1.03)" xlink:href="#circle"/><use width="1" height="1" transform="translate(1810.74 883.05) scale(1.03 1.03)" xlink:href="#circle"/><use width="1" height="1" transform="translate(1802.4 861.74) scale(1.03 1.03)" xlink:href="#circle"/><use width="1" height="1" transform="translate(1815.27 883.34) scale(1.03 1.03)" xlink:href="#circle"/><use width="1" height="1" transform="translate(1797.83 811.27) scale(1.03 1.03)" xlink:href="#circle"/><use width="1" height="1" transform="translate(1839.43 822.57) scale(1.03 1.03)" xlink:href="#circle"/><use width="1" height="1" transform="translate(1851.64 811.51) scale(1.03 1.03)" xlink:href="#circle"/><use width="1" height="1" transform="translate(1849.7 782.21) scale(1.03 1.03)" xlink:href="#circle"/><use width="1" height="1" transform="translate(1865.81 783.71) scale(1.03 1.03)" xlink:href="#circle"/><use width="1" height="1" transform="translate(1883.5 785.77) scale(1.03 1.03)" xlink:href="#circle"/><use width="1" height="1" transform="translate(1891.42 784.2) scale(1.03 1.03)" xlink:href="#circle"/><use width="1" height="1" transform="translate(1896.69 776.95) scale(1.03 1.03)" xlink:href="#circle"/><use width="1" height="1" transform="translate(1906.33 661.73) scale(1.03 1.03)" xlink:href="#circle"/><use width="1" height="1" transform="translate(1910.22 578.13) scale(1.03 1.03)" xlink:href="#circle"/><use width="1" height="1" transform="translate(1904.35 503.78) scale(1.03 1.03)" xlink:href="#circle"/><use width="1" height="1" transform="translate(1890.93 386.2) scale(1.03 1.03)" xlink:href="#circle"/><use width="1" height="1" transform="translate(1888.89 356.6) scale(1.03 1.03)" xlink:href="#circle"/><use width="1" height="1" transform="translate(1885.65 314.05) scale(1.03 1.03)" xlink:href="#circle"/><use width="1" height="1" transform="translate(1883.96 276.55) scale(1.03 1.03)" xlink:href="#circle"/><use width="1" height="1" transform="translate(1884.4 272.04) scale(1.03 1.03)" xlink:href="#circle"/><use width="1" height="1" transform="translate(1655.31 122.66) scale(1.03 1.03)" xlink:href="#circle"/><use width="1" height="1" transform="translate(1438.32 103.13) scale(1.03 1.03)" xlink:href="#circle"/><use width="1" height="1" transform="translate(1227.85 128.75) scale(1.03 1.03)" xlink:href="#circle"/><use width="1" height="1" transform="translate(1093.71 138.05) scale(1.03 1.03)" xlink:href="#circle"/><use width="1" height="1" transform="translate(1051.5 141.44) scale(1.03 1.03)" xlink:href="#circle"/><use width="1" height="1" transform="translate(1043.99 144.15) scale(1.03 1.03)" xlink:href="#circle"/><use width="1" height="1" transform="translate(1048.33 145.69) scale(1.03 1.03)" xlink:href="#circle"/><use width="1" height="1" transform="translate(1443.56 141.7) scale(1.03 1.03)" xlink:href="#circle"/><use width="1" height="1" transform="translate(1697.67 157.24) scale(1.03 1.03)" xlink:href="#circle"/><use width="1" height="1" transform="translate(1611.62 141.67) scale(1.03 1.03)" xlink:href="#circle"/><use width="1" height="1" transform="translate(1322.87 126.08) scale(1.03 1.03)" xlink:href="#circle"/><use width="1" height="1" transform="translate(1269.98 132.06) scale(1.03 1.03)" xlink:href="#circle"/><use width="1" height="1" transform="translate(1469.25 139.54) scale(1.03 1.03)" xlink:href="#circle"/><use width="1" height="1" transform="translate(1603.48 157.33) scale(1.03 1.03)" xlink:href="#circle"/><use width="1" height="1" transform="translate(1529.6 159.98) scale(1.03 1.03)" xlink:href="#circle"/><use width="1" height="1" transform="translate(1059.06 155.5) scale(1.03 1.03)" xlink:href="#circle"/><use width="1" height="1" transform="translate(900.63 195.2) scale(1.03 1.03)" xlink:href="#circle"/><use width="1" height="1" transform="translate(875.77 269.33) scale(1.03 1.03)" xlink:href="#circle"/><use width="1" height="1" transform="translate(984.46 457.31) scale(1.03 1.03)" xlink:href="#circle"/><use width="1" height="1" transform="translate(1275.6 536.93) scale(1.03 1.03)" xlink:href="#circle"/><use width="1" height="1" transform="translate(1356.55 557.21) scale(1.03 1.03)" xlink:href="#circle"/><use width="1" height="1" transform="translate(1284.82 580.82) scale(1.03 1.03)" xlink:href="#circle"/><use width="1" height="1" transform="translate(1023.25 636.01) scale(1.03 1.03)" xlink:href="#circle"/><use width="1" height="1" transform="translate(815.88 589.67) scale(1.03 1.03)" xlink:href="#circle"/><use width="1" height="1" transform="translate(969.57 321.48) scale(1.03 1.03)" xlink:href="#circle"/><use width="1" height="1" transform="translate(1252.97 274.11) scale(1.03 1.03)" xlink:href="#circle"/><use width="1" height="1" transform="translate(1374.77 299.52) scale(1.03 1.03)" xlink:href="#circle"/><use width="1" height="1" transform="translate(1385.05 243.52) scale(1.03 1.03)" xlink:href="#circle"/><use width="1" height="1" transform="translate(1276.05 164.65) scale(1.03 1.03)" xlink:href="#circle"/></svg>